<?xml version="1.0" encoding="utf-8"?>
<svg  viewBox="-16.6119 154.0877 739.0293 293.8461" xmlns="http://www.w3.org/2000/svg">
  <g transform="matrix(1, 0, 0, 1, 91, 33)">
    <path d="M 603.247 237.937 C 604.082 238.091 604.936 238.273 605.787 238.481 C 606.638 238.69 607.503 238.93 608.354 239.198 C 609.205 239.468 610.062 239.771 610.898 240.104 C 611.735 240.437 612.57 240.809 613.374 241.212 C 614.179 241.615 614.974 242.06 615.732 242.538 C 616.488 243.015 617.229 243.54 617.922 244.096 C 618.615 244.653 619.283 245.263 619.896 245.904 C 620.506 246.545 621.086 247.244 621.6 247.974 C 621.669 248.072 621.742 248.178 621.817 248.286 C 621.893 248.395 621.973 248.515 622.051 248.632 C 622.129 248.75 622.21 248.877 622.287 249.005 C 622.366 249.133 622.444 249.27 622.516 249.401 C 622.588 249.533 622.659 249.676 622.721 249.814 C 622.784 249.952 622.845 250.101 622.893 250.243 C 622.941 250.384 622.985 250.54 623.015 250.684 C 623.044 250.829 623.049 250.883 623.059 250.983 C 623.422 251.522 623.689 252.007 623.991 252.624 C 624.292 253.24 624.569 253.904 624.809 254.579 C 625.049 255.254 625.263 255.965 625.442 256.68 C 625.621 257.394 625.773 258.134 625.893 258.869 C 626.011 259.605 626.1 260.356 626.158 261.092 C 626.216 261.829 626.244 262.573 626.241 263.291 C 626.238 264.011 626.203 264.73 626.138 265.412 C 626.071 266.095 625.974 266.767 625.845 267.395 C 625.826 267.49 625.8 267.59 625.775 267.671 C 625.75 267.752 625.718 267.846 625.683 267.927 C 625.652 268.002 625.614 268.081 625.575 268.155 C 625.535 268.23 625.487 268.31 625.444 268.375 C 625.399 268.444 625.345 268.517 625.296 268.58 C 625.244 268.646 625.189 268.71 625.137 268.768 C 625.117 268.789 625.098 268.811 625.078 268.832 L 624.869 268.493 C 624.939 268.607 625.006 268.726 625.067 268.843 C 625.034 268.879 625 268.913 624.967 268.946 C 624.907 269.007 624.846 269.065 624.788 269.12 L 625.071 268.852 C 625.107 268.921 625.141 268.991 625.172 269.058 C 625.255 269.243 625.329 269.445 625.384 269.629 C 625.438 269.815 625.483 270.015 625.513 270.202 C 625.542 270.388 625.561 270.589 625.569 270.774 C 625.576 270.96 625.574 271.158 625.563 271.346 C 625.552 271.532 625.533 271.727 625.508 271.914 C 625.482 272.102 625.45 272.298 625.415 272.485 C 625.379 272.674 625.339 272.868 625.296 273.059 C 625.123 273.838 624.902 274.628 624.642 275.4 C 624.382 276.171 624.076 276.948 623.735 277.702 C 623.395 278.455 623.011 279.207 622.597 279.932 C 622.183 280.657 621.729 281.374 621.25 282.06 C 620.77 282.745 620.252 283.417 619.712 284.052 C 619.173 284.688 618.598 285.305 618.005 285.879 C 617.413 286.454 616.785 287.003 616.146 287.506 C 615.507 288.008 614.835 288.48 614.157 288.899 C 613.1 289.552 612.018 290.102 610.948 290.554 C 609.875 291.005 608.78 291.37 607.696 291.655 C 606.61 291.941 605.506 292.156 604.41 292.313 C 603.315 292.468 602.205 292.571 601.099 292.635 C 599.994 292.699 598.879 292.726 597.766 292.734 C 596.652 292.742 595.533 292.731 594.412 292.719 C 593.29 292.707 592.168 292.694 591.04 292.698 C 589.911 292.702 588.784 292.722 587.65 292.776 L 586.929 292.811 L 587.15 292.125 C 587.303 291.649 587.428 291.017 587.536 290.23 C 587.644 289.439 587.729 288.527 587.792 287.519 C 587.856 286.51 587.896 285.419 587.918 284.279 C 587.939 283.138 587.941 281.957 587.925 280.771 C 587.909 279.585 587.875 278.401 587.825 277.255 C 587.776 276.107 587.711 275.007 587.632 273.984 C 587.554 272.964 587.462 272.032 587.359 271.221 C 587.256 270.413 587.146 269.747 587.025 269.238 L 587.017 269.207 L 587.005 269.093 L 586.975 268.835 L 586.966 268.753 L 586.956 268.67 L 586.946 268.584 L 586.925 268.403 L 586.95 268.311 C 587.064 267.894 587.166 267.182 587.261 266.211 C 587.359 265.236 587.444 264.036 587.516 262.676 C 587.589 261.316 587.647 259.806 587.69 258.219 C 587.734 256.632 587.763 254.972 587.774 253.312 C 587.786 251.653 587.78 250 587.756 248.424 C 587.732 246.849 587.689 245.359 587.626 244.024 C 587.562 242.69 587.479 241.524 587.373 240.587 C 587.269 239.658 587.155 239.009 587.014 238.656 L 586.739 237.971 L 587.483 237.976 C 588.118 237.98 588.763 237.992 589.411 238.008 C 590.061 238.024 590.717 238.045 591.377 238.068 C 592.037 238.09 592.699 238.114 593.363 238.137 C 594.027 238.159 594.691 238.179 595.355 238.194 C 596.021 238.209 596.682 238.22 597.342 238.222 C 598.001 238.224 598.654 238.218 599.303 238.2 C 599.953 238.182 600.592 238.154 601.227 238.11 C 601.861 238.067 602.48 238.009 603.096 237.933 L 603.172 237.923 Z M 601.295 239.108 C 600.648 239.152 599.989 239.182 599.331 239.2 C 598.672 239.218 598.005 239.224 597.338 239.222 C 596.672 239.22 596.001 239.209 595.333 239.194 C 594.665 239.179 593.995 239.159 593.329 239.137 C 592.665 239.114 592.002 239.09 591.343 239.068 C 590.685 239.045 590.033 239.024 589.387 239.008 C 588.741 238.992 588.765 238.987 588.136 238.983 C 588.224 239.393 588.257 239.512 588.367 240.475 C 588.475 241.432 588.56 242.63 588.624 243.976 C 588.689 245.321 588.732 246.827 588.756 248.408 C 588.78 249.99 588.786 251.655 588.774 253.32 C 588.763 254.984 588.734 256.654 588.69 258.247 C 588.647 259.84 588.587 261.362 588.514 262.73 C 588.442 264.098 588.355 265.322 588.257 266.311 C 588.165 267.239 588.057 267.992 587.94 268.474 L 587.94 268.468 L 587.94 268.474 C 587.932 268.508 587.924 268.54 587.916 268.571 L 587.941 268.477 L 587.95 268.554 L 587.96 268.639 L 587.969 268.726 L 587.999 268.979 L 588.005 269.038 C 588.13 269.577 588.246 270.267 588.351 271.095 C 588.456 271.92 588.55 272.876 588.63 273.908 C 588.709 274.939 588.774 276.057 588.825 277.211 C 588.875 278.365 588.909 279.565 588.925 280.757 C 588.941 281.951 588.939 283.148 588.918 284.297 C 588.896 285.447 588.854 286.56 588.79 287.581 C 588.725 288.605 588.638 289.553 588.526 290.366 C 588.414 291.183 588.375 291.34 588.282 291.749 C 589.205 291.715 589.901 291.702 591.036 291.698 C 592.172 291.694 593.302 291.707 594.422 291.719 C 595.543 291.731 596.654 291.742 597.758 291.734 C 598.863 291.726 599.954 291.701 601.041 291.637 C 602.129 291.575 603.199 291.476 604.27 291.323 C 605.34 291.17 606.388 290.967 607.44 290.689 C 608.494 290.412 609.523 290.069 610.56 289.632 C 611.598 289.196 612.61 288.681 613.631 288.049 C 614.285 287.646 614.911 287.206 615.528 286.72 C 616.146 286.235 616.735 285.719 617.309 285.161 C 617.884 284.605 618.426 284.024 618.949 283.406 C 619.474 282.789 619.964 282.153 620.43 281.486 C 620.897 280.82 621.327 280.141 621.729 279.436 C 622.131 278.733 622.493 278.023 622.823 277.291 C 623.154 276.56 623.442 275.829 623.694 275.08 C 623.946 274.334 624.153 273.594 624.32 272.843 C 624.361 272.656 624.399 272.479 624.433 272.3 C 624.466 272.122 624.494 271.954 624.516 271.782 C 624.539 271.611 624.556 271.452 624.565 271.289 C 624.574 271.124 624.576 270.974 624.569 270.814 C 624.563 270.655 624.55 270.512 624.525 270.358 C 624.501 270.203 624.47 270.066 624.424 269.911 C 624.379 269.758 624.33 269.622 624.261 269.471 C 624.191 269.316 624.116 269.175 624.019 269.021 L 623.803 268.676 L 624.1 268.394 C 624.158 268.339 624.209 268.291 624.255 268.244 C 624.306 268.193 624.35 268.148 624.391 268.101 C 624.437 268.051 624.473 268.01 624.506 267.966 C 624.544 267.919 624.577 267.874 624.608 267.827 C 624.641 267.776 624.665 267.738 624.689 267.691 C 624.716 267.643 624.738 267.594 624.763 267.537 C 624.784 267.486 624.8 267.442 624.819 267.379 C 624.838 267.316 624.852 267.264 624.865 267.199 C 624.988 266.599 625.079 265.975 625.142 265.316 C 625.205 264.657 625.238 263.985 625.241 263.287 C 625.244 262.589 625.218 261.887 625.162 261.17 C 625.106 260.454 625.021 259.744 624.905 259.029 C 624.789 258.314 624.647 257.616 624.472 256.924 C 624.299 256.232 624.099 255.566 623.867 254.915 C 623.635 254.264 623.382 253.652 623.093 253.064 C 622.806 252.475 622.499 251.938 622.156 251.431 L 622.074 251.31 L 622.07 251.168 C 622.068 251.07 622.058 250.99 622.036 250.886 C 622.015 250.78 621.987 250.682 621.948 250.569 C 621.91 250.455 621.866 250.348 621.812 250.23 C 621.758 250.111 621.701 249.995 621.637 249.877 C 621.571 249.756 621.505 249.643 621.434 249.527 C 621.364 249.41 621.29 249.295 621.216 249.181 C 621.14 249.067 621.067 248.959 620.995 248.855 C 620.92 248.747 620.849 248.644 620.782 248.548 C 620.292 247.85 619.76 247.209 619.172 246.594 C 618.585 245.977 617.965 245.413 617.296 244.876 C 616.627 244.338 615.932 243.847 615.198 243.384 C 614.464 242.92 613.711 242.499 612.926 242.106 C 612.142 241.713 611.347 241.359 610.528 241.032 C 609.71 240.707 608.887 240.416 608.052 240.152 C 607.218 239.888 606.386 239.658 605.549 239.453 C 604.712 239.247 603.963 239.085 603.142 238.935 C 602.536 239.008 601.941 239.063 601.295 239.108 Z M 617.76 268.457 C 617.195 268.481 616.631 268.511 616.068 268.545 C 615.506 268.579 614.947 268.616 614.394 268.652 C 613.842 268.689 613.266 268.226 612.734 268.258 C 613.263 268.226 613.775 267.69 614.328 267.654 C 614.882 267.617 615.443 267.581 616.008 267.547 C 616.574 267.513 617.146 267.482 617.716 267.457 C 618.287 267.432 618.862 267.414 619.428 267.406 L 619.428 267.413 L 619.428 267.406 C 619.994 267.398 620.561 267.399 621.115 267.414 L 621.088 268.414 C 620.547 268.4 620 268.398 619.443 268.406 C 618.885 268.415 618.325 268.433 617.76 268.457 Z M 602.308 268.729 C 601.322 268.77 600.356 269.311 599.368 269.348 C 598.381 269.386 597.393 269.421 596.406 269.453 C 595.418 269.485 594.418 269.013 593.43 269.037 C 594.416 269.013 595.388 268.484 596.374 268.453 C 597.359 268.421 598.344 268.385 599.33 268.348 C 600.316 268.31 601.322 268.77 602.308 268.729 Z M 602.308 268.729 C 601.322 268.77 594.416 269.013 593.43 269.037 C 594.418 269.013 601.322 268.77 602.308 268.729 Z M 605.245 268.101 C 606.231 268.057 607.217 268.012 608.203 267.969 L 608.247 268.969 C 607.261 269.013 606.275 269.057 605.289 269.1 Z" style="fill: none;"/>
    <g style="" transform="matrix(1.329379, 0, 0, 1, -213.728455, 3.15391)">
      <path d="M 194.301 238.208 C 318.77 237.78 443.238 237.771 567.706 238.179 C 585.609 238.31 603.505 238.208 621.408 238.261 C 620.645 244.963 620.888 251.683 621.013 258.391 C 621.072 261.576 620.519 265 621.409 268.157 C 620.313 275.909 620.837 283.776 621.045 291.541 C 603.111 291.681 585.256 291.439 567.298 291.628 C 552.323 291.411 537.259 291.678 522.275 291.695 L 434.859 291.686 L 153.917 291.561 L 141.497 291.569 C 127.7 291.34 113.675 291.513 99.85 291.469 L 99.882 269.05 L 99.818 268.325 C 100.472 258.288 100.706 248.25 100.518 238.21 C 118.378 238.296 136.278 238.175 154.143 238.154 L 194.301 238.208 Z" style="fill: rgb(255, 255, 255);"/>
      <path style="fill: rgb(255, 255, 255); transform-origin: 624.372px 264.856px;" d="M 613.388 238 C 630.572 238 641.313 260.38 632.721 278.284 C 628.664 286.737 621.113 291.877 613 291.707"/>
      <path style="fill: rgb(255, 255, 255); transform-origin: 91.197px 265.368px;" d="M 80.213 238.512 C 97.397 238.512 108.138 260.892 99.546 278.796 C 95.489 287.249 87.938 292.389 79.825 292.219" transform="matrix(-1, 0, 0, -1, 0, -0.000035)"/>
    </g>
    <g transform="matrix(1, 0, 0, 1, -10, 0)">
      <path d="M 329.002 168.665 C 329.033 165.626 329.054 162.554 329.342 159.527 C 329.377 159.184 329.416 158.842 329.459 158.5 C 329.502 158.159 329.549 157.818 329.601 157.477 C 329.652 157.136 329.708 156.796 329.768 156.457 C 329.828 156.118 329.892 155.78 329.96 155.442 C 330.028 155.104 330.101 154.768 330.177 154.432 C 330.253 154.096 330.334 153.761 330.418 153.427 C 330.503 153.093 330.591 152.76 330.684 152.428 C 330.776 152.097 330.873 151.766 330.974 151.437 C 331.075 151.107 331.18 150.779 331.289 150.452 C 331.397 150.125 331.51 149.8 331.626 149.476 C 331.743 149.152 331.864 148.829 331.989 148.508 C 332.113 148.187 332.242 147.867 332.374 147.55 C 332.507 147.231 332.643 146.915 332.783 146.601 C 332.923 146.286 333.067 145.973 333.215 145.662 C 333.363 145.351 333.514 145.041 333.67 144.734 C 333.825 144.426 333.984 144.121 334.146 143.817 C 334.31 143.514 334.476 143.213 334.646 142.913 C 334.816 142.614 334.99 142.316 335.168 142.021 C 335.345 141.726 335.526 141.433 335.711 141.142 C 335.895 140.851 336.083 140.563 336.275 140.277 C 336.467 139.99 336.662 139.706 336.86 139.425 C 337.059 139.144 337.261 138.865 337.466 138.588 C 337.671 138.312 337.88 138.038 338.092 137.766 C 338.305 137.495 338.52 137.226 338.739 136.96 C 338.957 136.694 339.179 136.43 339.404 136.169 C 339.629 135.909 339.857 135.651 340.089 135.396 C 340.32 135.141 340.555 134.888 340.792 134.639 C 341.03 134.39 341.27 134.143 341.514 133.9 C 341.757 133.656 342.004 133.416 342.253 133.178 C 342.503 132.941 342.755 132.706 343.011 132.475 C 343.266 132.244 343.523 132.015 343.784 131.79 C 344.045 131.565 344.308 131.344 344.575 131.125 C 344.858 130.893 345.145 130.665 345.435 130.44 C 345.725 130.215 346.017 129.993 346.312 129.776 C 346.607 129.558 346.905 129.344 347.205 129.133 C 347.506 128.923 347.808 128.717 348.114 128.514 C 348.419 128.311 348.727 128.112 349.038 127.916 C 349.348 127.721 349.661 127.53 349.976 127.342 C 350.291 127.155 350.608 126.971 350.928 126.792 C 351.248 126.612 351.569 126.436 351.893 126.264 C 352.217 126.093 352.543 125.925 352.871 125.762 C 353.2 125.598 353.53 125.438 353.862 125.283 C 354.194 125.127 354.528 124.976 354.864 124.829 C 355.2 124.682 355.537 124.539 355.877 124.4 C 356.216 124.261 356.557 124.126 356.9 123.996 C 357.242 123.866 357.586 123.74 357.932 123.617 C 358.278 123.496 358.626 123.378 358.974 123.264 C 359.323 123.151 359.673 123.042 360.024 122.938 C 360.376 122.833 360.728 122.733 361.082 122.637 C 361.436 122.541 361.791 122.449 362.148 122.362 C 362.504 122.275 362.861 122.192 363.219 122.114 C 363.577 122.036 363.936 121.962 364.296 121.893 C 364.656 121.823 365.017 121.758 365.379 121.697 C 365.74 121.637 366.103 121.581 366.466 121.529 C 366.829 121.478 367.193 121.431 367.557 121.388 C 367.921 121.346 368.285 121.308 368.65 121.274 C 369.016 121.241 369.381 121.212 369.747 121.187 C 370.113 121.163 370.479 121.143 370.845 121.127 C 371.212 121.112 371.578 121.101 371.945 121.095 C 372.311 121.088 372.678 121.086 373.045 121.089 C 373.411 121.092 373.778 121.099 374.144 121.111 C 374.511 121.123 374.877 121.139 375.243 121.16 C 375.609 121.181 375.975 121.206 376.34 121.236 C 376.706 121.266 377.071 121.3 377.435 121.339 C 391.881 122.827 400.778 131.11 409.468 141.82 C 411.806 146.713 414.165 151.521 415.147 156.905 C 416.998 167.048 415.942 178.058 415.894 188.333 L 415.875 236.315 C 408.727 236.337 401.566 236.457 394.42 236.372 C 394.495 246.412 394.401 256.45 394.14 266.486 L 394.165 267.212 L 394.152 289.631 C 399.684 289.675 405.296 289.502 410.815 289.73 L 415.785 289.723 L 415.779 339.903 C 415.794 351.604 417.098 368.115 414.229 379.175 C 412.449 386.041 408.592 392.139 403.606 397.136 C 395.259 405.501 384.614 409.949 372.817 409.913 C 362.066 409.88 353.19 406.2 344.347 400.448 C 341.098 397.26 338.509 393.545 335.348 390.318 C 334.473 387.756 332.816 385.07 331.699 382.553 C 331.306 381.234 330.963 379.902 330.668 378.558 C 330.374 377.214 330.129 375.861 329.933 374.499 C 329.738 373.136 329.593 371.769 329.498 370.396 C 329.403 369.023 329.358 367.648 329.364 366.272 C 329.357 363.02 329.642 359.588 329.122 356.376 C 330.004 353.851 329.392 335.841 329.391 331.513 L 329.371 266.634 L 329.104 218.892 C 329.169 202.123 329.634 185.434 329.002 168.665 Z" style="transform-box: fill-box; transform-origin: 50% 50%; fill: rgb(255, 255, 255);" transform="matrix(-1, 0, 0, -1, 0.000024, 0.000028)"/>
      <path d="M 464.745 163.085 C 467.513 161.602 470.205 159.949 473.113 158.749 C 481.584 155.254 491.661 155.011 500.384 157.699 C 510.569 160.838 520.765 168.63 525.663 178.223 C 525.871 178.633 525.975 178.851 526.038 179.306 C 528.629 182.532 529.686 187.205 530.29 191.207 C 531.581 199.809 530.883 208.71 530.94 217.374 C 530.977 223.413 531.508 233.078 530.784 238.812 C 530.727 239.267 530.576 239.678 530.42 240.106 C 531.648 243.29 531.325 266.506 530.373 270.071 L 530.451 270.752 C 531.45 274.955 531.851 289.877 530.566 293.907 C 531.159 300.987 530.717 307.966 530.727 315.05 C 530.748 326.1 532.143 338.91 529.514 349.633 C 528.093 355.446 525.142 360.877 521.275 365.427 C 514.239 373.71 504.251 379.166 493.342 379.942 C 484.567 380.567 474.829 377.866 467.673 372.716 C 463.036 369.426 459.402 365.943 455.804 361.576 C 454.771 352.996 455.612 343.796 455.624 335.142 C 455.654 314.302 456.093 293.325 455.536 272.5 C 455.239 262.376 455.46 252.188 455.462 242.057 L 455.427 171.558 C 458.143 168.061 461.05 165.507 464.745 163.085 Z" style="fill: rgb(255, 255, 255);"/>
      <path d="M 560.099 185.454 C 562.1 184.217 564.046 182.837 566.148 181.837 C 572.271 178.92 579.556 178.718 585.861 180.96 C 593.223 183.579 600.593 190.08 604.135 198.084 C 604.286 198.425 604.36 198.608 604.407 198.986 C 606.279 201.678 607.043 205.576 607.48 208.915 C 608.413 216.091 607.907 223.516 607.949 230.744 C 607.976 235.782 608.36 243.846 607.837 248.63 C 607.795 249.01 607.686 249.352 607.573 249.709 C 608.462 252.365 608.229 271.734 607.54 274.708 L 607.597 275.276 C 608.317 278.782 608.608 291.231 607.68 294.594 C 608.108 300.5 607.789 306.322 607.795 312.231 C 607.811 321.451 608.82 332.137 606.918 341.084 C 605.892 345.933 603.759 350.463 600.963 354.259 C 595.877 361.169 588.657 365.721 580.771 366.369 C 574.428 366.891 567.388 364.637 562.216 360.341 C 558.862 357.595 556.237 354.689 553.636 351.046 C 552.89 343.89 553.497 336.214 553.505 328.994 C 553.527 311.608 553.844 294.107 553.442 276.734 C 553.227 268.288 553.387 259.79 553.389 251.338 L 553.362 192.522 C 555.326 189.604 557.428 187.474 560.099 185.454 Z" style="fill: rgb(255, 255, 255);"/>
      <path d="M 488.332 183.306 C 488.846 180.756 489.26 178.091 489.929 175.714 C 491.876 168.795 495.64 163.917 499.974 162.173 C 505.033 160.141 511.822 162.085 517.25 168.03 C 517.482 168.281 517.601 168.423 517.794 168.781 C 519.982 170.344 522.117 173.856 523.831 177.001 C 527.511 183.768 530.542 191.712 533.774 199.105 C 536.024 204.256 539.81 212.288 541.658 217.532 C 541.802 217.949 541.897 218.37 541.994 218.811 C 543.646 220.966 552.125 240.993 553.079 244.489 L 553.362 245.037 C 555.302 248.172 560.983 260.764 561.986 264.808 C 564.835 270.598 567.251 276.775 569.88 282.836 C 573.982 292.289 579.261 302.611 582.227 313.014 C 583.838 318.647 584.721 324.663 584.926 330.354 C 585.303 340.708 583.503 350.009 579.617 355.734 C 576.49 360.337 571.763 362.539 567.118 361.447 C 564.123 360.779 561.444 359.478 558.451 357.406 C 554.876 350.541 551.788 342.273 548.586 334.859 C 540.877 317 533.273 298.836 525.348 281.262 C 521.481 272.733 517.793 263.909 514.038 255.229 L 487.907 194.881 C 487.65 190.627 487.817 187.094 488.332 183.306 Z" style="fill: rgb(255, 255, 255); transform-origin: 538.123px 259.847px;"/>
      <path d="M 368.593 166.757 C 369.289 163.661 369.852 160.427 370.759 157.543 C 373.4 149.144 378.508 143.222 384.387 141.108 C 391.251 138.641 400.462 141.002 407.828 148.217 C 408.143 148.522 408.305 148.692 408.566 149.126 C 411.533 151.024 414.43 155.286 416.756 159.104 C 421.75 167.316 425.862 176.958 430.247 185.93 C 433.3 192.182 438.436 201.93 440.943 208.294 C 441.14 208.801 441.269 209.313 441.401 209.846 C 443.642 212.463 455.145 236.769 456.44 241.012 L 456.824 241.675 C 459.455 245.481 467.164 260.764 468.523 265.672 C 472.39 272.699 475.668 280.196 479.234 287.552 C 484.799 299.026 491.962 311.553 495.987 324.177 C 498.171 331.015 499.369 338.316 499.647 345.225 C 500.159 357.789 497.717 369.077 492.445 376.026 C 488.203 381.612 481.788 384.285 475.487 382.959 C 471.423 382.15 467.788 380.571 463.728 378.057 C 458.878 369.723 454.687 359.689 450.343 350.691 C 439.884 329.015 429.567 306.971 418.814 285.642 C 413.568 275.291 408.564 264.58 403.47 254.048 L 368.015 180.805 C 367.668 175.641 367.893 171.354 368.593 166.757 Z" style="transform-origin: 436.148px 259.652px; fill: rgb(255, 255, 255);" transform="matrix(-1, 0, 0, -1, -0.000043, -0.000004)"/>
    </g>
    <g transform="matrix(-1, 0, 0, -1, 619.115479, 537.130249)">
      <g transform="matrix(-1, 0, 0, -1, -453.148926, 2.849854)" style="transform-origin: 540.487px 266.325px;"/>
      <g transform="matrix(1.20766, 0, 0, 1.201671, -477.68219, -35.198101)" style="">
        <path d="M 490.622 182.787 C 491.196 180.222 491.667 177.511 492.426 175.079 C 494.662 168.002 499.045 162.913 504.018 161.081 C 509.849 159.021 517.735 161.041 523.947 167.109 C 524.215 167.37 524.358 167.529 524.575 167.867 C 527.104 169.516 529.486 173.081 531.419 176.268 C 535.57 183.134 538.986 191.178 542.612 198.633 C 545.136 203.829 549.398 211.961 551.485 217.282 C 551.658 217.733 551.755 218.116 551.857 218.526 C 553.92 221.192 563.149 240.777 564.312 244.488 L 564.592 244.974 C 566.8 248.199 573.137 260.832 574.323 265.02 C 577.535 270.889 580.227 277.089 583.176 283.201 C 587.776 292.735 593.72 303.192 597.075 313.746 C 598.892 319.471 599.896 325.613 600.129 331.392 C 600.547 341.911 598.475 351.464 594.064 357.345 C 590.449 362.074 584.891 364.393 579.525 363.304 C 576.109 362.614 573.016 361.267 569.622 359.159 L 569.516 359.093 L 569.453 358.985 C 565.423 352.02 561.944 343.653 558.352 336.177 C 549.69 318.137 541.149 299.796 532.248 282.054 C 527.901 273.433 523.756 264.516 519.539 255.754 L 490.139 194.716 L 490.132 194.619 C 489.845 190.293 490.04 186.636 490.622 182.787 Z M 491.123 194.456 L 520.44 255.32 C 524.66 264.088 528.801 272.997 533.141 281.604 C 542.049 299.359 550.594 317.709 559.254 335.745 C 562.856 343.245 566.255 351.47 570.256 358.375 C 573.542 360.412 576.407 361.666 579.721 362.324 C 584.791 363.441 589.857 361.312 593.266 356.743 C 597.587 351.058 599.559 341.826 599.129 331.432 C 598.902 325.714 597.922 319.703 596.122 314.048 C 592.81 303.591 586.892 293.199 582.276 283.635 C 579.319 277.505 576.61 271.278 573.418 265.45 L 573.39 265.399 L 573.375 265.343 C 572.267 261.305 565.919 248.662 563.757 245.524 L 563.418 244.939 L 563.389 244.889 L 563.373 244.834 C 562.314 241.337 552.838 221.2 551.017 219.077 L 550.941 218.988 L 550.912 218.872 C 550.804 218.431 550.706 218.035 550.553 217.642 C 548.488 212.371 544.244 204.279 541.712 199.07 C 538.076 191.592 534.682 183.588 530.563 176.786 C 528.644 173.62 526.324 170.153 523.939 168.645 L 523.838 168.581 L 523.78 168.481 C 523.597 168.163 523.503 168.072 523.249 167.825 C 517.263 161.885 509.895 159.975 504.358 162.021 C 499.595 163.709 495.518 168.477 493.38 175.377 C 492.637 177.745 492.178 180.405 491.602 182.988 C 491.026 186.782 490.846 190.232 491.123 194.456 Z" style="fill: none;"/>
      </g>
    </g>
    <g transform="matrix(1, 0, 0, 1, -3.51947, -5.455139)" style="transform-origin: 128.992px 279.396px;">
      <g transform="matrix(-1, 0, 0, -1, -453.148926, 2.849854)" style="transform-origin: 540.487px 266.325px;"/>
      <g transform="matrix(1.20766, 0, 0, 1.201671, -477.68219, -35.198101)" style="">
        <path d="M 490.622 182.787 C 491.196 180.222 491.667 177.511 492.426 175.079 C 494.662 168.002 499.045 162.913 504.018 161.081 C 509.849 159.021 517.735 161.041 523.947 167.109 C 524.215 167.37 524.358 167.529 524.575 167.867 C 527.104 169.516 529.486 173.081 531.419 176.268 C 535.57 183.134 538.986 191.178 542.612 198.633 C 545.136 203.829 549.398 211.961 551.485 217.282 C 551.658 217.733 551.755 218.116 551.857 218.526 C 553.92 221.192 563.149 240.777 564.312 244.488 L 564.592 244.974 C 566.8 248.199 573.137 260.832 574.323 265.02 C 577.535 270.889 580.227 277.089 583.176 283.201 C 587.776 292.735 593.72 303.192 597.075 313.746 C 598.892 319.471 599.896 325.613 600.129 331.392 C 600.547 341.911 598.475 351.464 594.064 357.345 C 590.449 362.074 584.891 364.393 579.525 363.304 C 576.109 362.614 573.016 361.267 569.622 359.159 L 569.516 359.093 L 569.453 358.985 C 565.423 352.02 561.944 343.653 558.352 336.177 C 549.69 318.137 541.149 299.796 532.248 282.054 C 527.901 273.433 523.756 264.516 519.539 255.754 L 490.139 194.716 L 490.132 194.619 C 489.845 190.293 490.04 186.636 490.622 182.787 Z M 491.123 194.456 L 520.44 255.32 C 524.66 264.088 528.801 272.997 533.141 281.604 C 542.049 299.359 550.594 317.709 559.254 335.745 C 562.856 343.245 566.255 351.47 570.256 358.375 C 573.542 360.412 576.407 361.666 579.721 362.324 C 584.791 363.441 589.857 361.312 593.266 356.743 C 597.587 351.058 599.559 341.826 599.129 331.432 C 598.902 325.714 597.922 319.703 596.122 314.048 C 592.81 303.591 586.892 293.199 582.276 283.635 C 579.319 277.505 576.61 271.278 573.418 265.45 L 573.39 265.399 L 573.375 265.343 C 572.267 261.305 565.919 248.662 563.757 245.524 L 563.418 244.939 L 563.389 244.889 L 563.373 244.834 C 562.314 241.337 552.838 221.2 551.017 219.077 L 550.941 218.988 L 550.912 218.872 C 550.804 218.431 550.706 218.035 550.553 217.642 C 548.488 212.371 544.244 204.279 541.712 199.07 C 538.076 191.592 534.682 183.588 530.563 176.786 C 528.644 173.62 526.324 170.153 523.939 168.645 L 523.838 168.581 L 523.78 168.481 C 523.597 168.163 523.503 168.072 523.249 167.825 C 517.263 161.885 509.895 159.975 504.358 162.021 C 499.595 163.709 495.518 168.477 493.38 175.377 C 492.637 177.745 492.178 180.405 491.602 182.988 C 491.026 186.782 490.846 190.232 491.123 194.456 Z" style="fill: none;"/>
      </g>
    </g>
    <g transform="matrix(-1, 0, 0, -1, -406.125244, 4.021484)" style="transform-origin: 468.633px 265.5px;">
      <path d="M 329.002 167.665 C 329.033 164.626 329.054 161.554 329.342 158.527 C 329.377 158.184 329.416 157.842 329.459 157.5 C 329.502 157.159 329.549 156.818 329.601 156.477 C 329.652 156.136 329.708 155.796 329.768 155.457 C 329.828 155.118 329.892 154.78 329.96 154.442 C 330.028 154.104 330.101 153.768 330.177 153.432 C 330.253 153.096 330.334 152.761 330.418 152.427 C 330.503 152.093 330.591 151.76 330.684 151.428 C 330.776 151.097 330.873 150.766 330.974 150.437 C 331.075 150.107 331.18 149.779 331.289 149.452 C 331.397 149.125 331.51 148.8 331.626 148.476 C 331.743 148.152 331.864 147.829 331.989 147.508 C 332.113 147.187 332.242 146.867 332.374 146.55 C 332.507 146.231 332.643 145.915 332.783 145.601 C 332.923 145.286 333.067 144.973 333.215 144.662 C 333.363 144.351 333.514 144.041 333.67 143.734 C 333.825 143.426 333.984 143.121 334.146 142.817 C 334.31 142.514 334.476 142.213 334.646 141.913 C 334.816 141.614 334.99 141.316 335.168 141.021 C 335.345 140.726 335.526 140.433 335.711 140.142 C 335.895 139.851 336.083 139.563 336.275 139.277 C 336.467 138.99 336.662 138.706 336.86 138.425 C 337.059 138.144 337.261 137.865 337.466 137.588 C 337.671 137.312 337.88 137.038 338.092 136.766 C 338.305 136.495 338.52 136.226 338.739 135.96 C 338.957 135.694 339.179 135.43 339.404 135.169 C 339.629 134.909 339.857 134.651 340.089 134.396 C 340.32 134.141 340.555 133.888 340.792 133.639 C 341.03 133.39 341.27 133.143 341.514 132.9 C 341.757 132.656 342.004 132.416 342.253 132.178 C 342.503 131.941 342.755 131.706 343.011 131.475 C 343.266 131.244 343.523 131.015 343.784 130.79 C 344.045 130.565 344.308 130.344 344.575 130.125 C 344.858 129.893 345.145 129.665 345.435 129.44 C 345.725 129.215 346.017 128.993 346.312 128.776 C 346.607 128.558 346.905 128.344 347.205 128.133 C 347.506 127.923 347.808 127.717 348.114 127.514 C 348.419 127.311 348.727 127.112 349.038 126.916 C 349.348 126.721 349.661 126.53 349.976 126.342 C 350.291 126.155 350.608 125.971 350.928 125.792 C 351.248 125.612 351.569 125.436 351.893 125.264 C 352.217 125.093 352.543 124.925 352.871 124.762 C 353.2 124.598 353.53 124.438 353.862 124.283 C 354.194 124.127 354.528 123.976 354.864 123.829 C 355.2 123.682 355.537 123.539 355.877 123.4 C 356.216 123.261 356.557 123.126 356.9 122.996 C 357.242 122.866 357.586 122.74 357.932 122.617 C 358.278 122.496 358.626 122.378 358.974 122.264 C 359.323 122.151 359.673 122.042 360.024 121.938 C 360.376 121.833 360.728 121.733 361.082 121.637 C 361.436 121.541 361.791 121.449 362.148 121.362 C 362.504 121.275 362.861 121.192 363.219 121.114 C 363.577 121.036 363.936 120.962 364.296 120.893 C 364.656 120.823 365.017 120.758 365.379 120.697 C 365.74 120.637 366.103 120.581 366.466 120.529 C 366.829 120.478 367.193 120.431 367.557 120.388 C 367.921 120.346 368.285 120.308 368.65 120.274 C 369.016 120.241 369.381 120.212 369.747 120.187 C 370.113 120.163 370.479 120.143 370.845 120.127 C 371.212 120.112 371.578 120.101 371.945 120.095 C 372.311 120.088 372.678 120.086 373.045 120.089 C 373.411 120.092 373.778 120.099 374.144 120.111 C 374.511 120.123 374.877 120.139 375.243 120.16 C 375.609 120.181 375.975 120.206 376.34 120.236 C 376.706 120.266 377.071 120.3 377.435 120.339 C 391.881 121.827 400.778 130.11 409.468 140.82 C 411.806 145.713 414.165 150.521 415.147 155.905 C 416.998 166.048 415.942 177.058 415.894 187.333 L 415.875 235.315 C 408.727 235.337 401.566 235.457 394.42 235.372 C 394.495 245.412 394.401 255.45 394.14 265.486 L 394.165 266.212 L 394.152 288.631 C 399.684 288.675 405.296 288.502 410.815 288.73 L 415.785 288.723 L 415.779 338.903 C 415.794 350.604 417.098 367.115 414.229 378.175 C 412.449 385.041 408.592 391.139 403.606 396.136 C 395.259 404.501 384.614 408.949 372.817 408.913 C 362.066 408.88 353.19 405.2 344.347 399.448 C 341.098 396.26 338.509 392.545 335.348 389.318 C 334.473 386.756 332.816 384.07 331.699 381.553 C 331.306 380.234 330.963 378.902 330.668 377.558 C 330.374 376.214 330.129 374.861 329.933 373.499 C 329.738 372.136 329.593 370.769 329.498 369.396 C 329.403 368.023 329.358 366.648 329.364 365.272 C 329.357 362.02 329.642 358.588 329.122 355.376 C 330.004 352.851 329.392 334.841 329.391 330.513 L 329.371 265.634 L 329.104 217.892 C 329.169 201.123 329.634 184.434 329.002 167.665 Z" style="fill: rgb(255, 255, 255); transform-box: fill-box; transform-origin: 50% 50%;" transform="matrix(-1, 0, 0, -1, 0, 0.000014)"/>
      <path d="M 464.745 163.085 C 467.513 161.602 470.205 159.949 473.113 158.749 C 481.584 155.254 491.661 155.011 500.384 157.699 C 510.569 160.838 520.765 168.63 525.663 178.223 C 525.871 178.633 525.975 178.851 526.038 179.306 C 528.629 182.532 529.686 187.205 530.29 191.207 C 531.581 199.809 530.883 208.71 530.94 217.374 C 530.977 223.413 531.508 233.078 530.784 238.812 C 530.727 239.267 530.576 239.678 530.42 240.106 C 531.648 243.29 531.325 266.506 530.373 270.071 L 530.451 270.752 C 531.45 274.955 531.851 289.877 530.566 293.907 C 531.159 300.987 530.717 307.966 530.727 315.05 C 530.748 326.1 532.143 338.91 529.514 349.633 C 528.093 355.446 525.142 360.877 521.275 365.427 C 514.239 373.71 504.251 379.166 493.342 379.942 C 484.567 380.567 474.829 377.866 467.673 372.716 C 463.036 369.426 459.402 365.943 455.804 361.576 C 454.771 352.996 455.612 343.796 455.624 335.142 C 455.654 314.302 456.093 293.325 455.536 272.5 C 455.239 262.376 455.46 252.188 455.462 242.057 L 455.427 171.558 C 458.143 168.061 461.05 165.507 464.745 163.085 Z" style="fill: rgb(255, 255, 255);"/>
      <path d="M 560.099 185.454 C 562.1 184.217 564.046 182.837 566.148 181.837 C 572.271 178.92 579.556 178.718 585.861 180.96 C 593.223 183.579 600.593 190.08 604.135 198.084 C 604.286 198.425 604.36 198.608 604.407 198.986 C 606.279 201.678 607.043 205.576 607.48 208.915 C 608.413 216.091 607.907 223.516 607.949 230.744 C 607.976 235.782 608.36 243.846 607.837 248.63 C 607.795 249.01 607.686 249.352 607.573 249.709 C 608.462 252.365 608.229 271.734 607.54 274.708 L 607.597 275.276 C 608.317 278.782 608.608 291.231 607.68 294.594 C 608.108 300.5 607.789 306.322 607.795 312.231 C 607.811 321.451 608.82 332.137 606.918 341.084 C 605.892 345.933 603.759 350.463 600.963 354.259 C 595.877 361.169 588.657 365.721 580.771 366.369 C 574.428 366.891 567.388 364.637 562.216 360.341 C 558.862 357.595 556.237 354.689 553.636 351.046 C 552.89 343.89 553.497 336.214 553.505 328.994 C 553.527 311.608 553.844 294.107 553.442 276.734 C 553.227 268.288 553.387 259.79 553.389 251.338 L 553.362 192.522 C 555.326 189.604 557.428 187.474 560.099 185.454 Z" style="fill: rgb(255, 255, 255);"/>
      <path d="M 490.31 183.87 C 490.802 181.369 491.2 178.758 491.841 176.429 C 493.707 169.647 497.318 164.865 501.472 163.158 C 506.322 161.166 512.833 163.072 518.038 168.898 C 518.261 169.145 518.375 169.282 518.559 169.633 C 520.656 171.165 522.703 174.607 524.347 177.69 C 527.876 184.321 530.783 192.107 533.882 199.352 C 536.038 204.4 539.669 212.272 541.441 217.411 C 541.58 217.82 541.671 218.234 541.764 218.663 C 543.348 220.777 551.477 240.404 552.391 243.83 L 552.663 244.366 C 554.523 247.439 559.971 259.78 560.931 263.743 C 563.665 269.417 565.981 275.471 568.501 281.411 C 572.434 290.677 577.495 300.791 580.34 310.986 C 581.885 316.507 582.731 322.403 582.927 327.981 C 583.289 338.127 581.563 347.242 577.837 352.853 C 574.839 357.365 570.306 359.523 565.853 358.452 C 562.98 357.798 560.412 356.523 557.542 354.493 C 554.115 347.764 551.154 339.662 548.083 332.396 C 540.692 314.893 533.401 297.092 525.801 279.869 C 522.094 271.51 518.558 262.862 514.958 254.357 L 489.901 195.213 C 489.656 191.043 489.816 187.581 490.31 183.87 Z" style="fill: rgb(255, 255, 255); transform-origin: 538.053px 258.882px;"/>
      <path d="M 368.593 166.757 C 369.289 163.661 369.852 160.427 370.759 157.543 C 373.4 149.144 378.508 143.222 384.387 141.108 C 391.251 138.641 400.462 141.002 407.828 148.217 C 408.143 148.522 408.305 148.692 408.566 149.126 C 411.533 151.024 414.43 155.286 416.756 159.104 C 421.75 167.316 425.862 176.958 430.247 185.93 C 433.3 192.182 438.436 201.93 440.943 208.294 C 441.14 208.801 441.269 209.313 441.401 209.846 C 443.642 212.463 455.145 236.769 456.44 241.012 L 456.824 241.675 C 459.455 245.481 467.164 260.764 468.523 265.672 C 472.39 272.699 475.668 280.196 479.234 287.552 C 484.799 299.026 491.962 311.553 495.987 324.177 C 498.171 331.015 499.369 338.316 499.647 345.225 C 500.159 357.789 497.717 369.077 492.445 376.026 C 488.203 381.612 481.788 384.285 475.487 382.959 C 471.423 382.15 467.788 380.571 463.728 378.057 C 458.878 369.723 454.687 359.689 450.343 350.691 C 439.884 329.015 429.567 306.971 418.814 285.642 C 413.568 275.291 408.564 264.58 403.47 254.048 L 368.015 180.805 C 367.668 175.641 367.893 171.354 368.593 166.757 Z" style="transform-origin: 436.148px 259.652px; fill: rgb(255, 255, 255);" transform="matrix(-1, 0, 0, -1, -0.000043, -0.000004)"/>
    </g>
  </g>
</svg>