<?xml version="1.0" encoding="utf-8" ?>
<svg xmlns="http://www.w3.org/2000/svg" xmlns:xlink="http://www.w3.org/1999/xlink" width="1024" height="1024">
	<path fill="#C95DD3" d="M0 0L1024 0L1024 592.357L1024 600.513L1024 622.468L1024 632.949L1024 651.593L1024 738.033L1024 1024L0 1024L0 760.912L0 702.965L0 673.535L0 618.351L0 0ZM0 0L0 618.351C2.28878 614.092 4.43154 610.104 8.01821 606.764C14.5866 600.648 22.8784 598.516 31.668 598.709C33.4596 585.785 35.4271 572.462 43.9847 562.042C53.5067 550.448 66.5059 548.505 80.603 547.029C83.2495 538.939 85.7742 530.668 89.9554 523.21C102.789 500.316 117.117 498.701 140.814 495.17C157.073 492.747 174.649 491.182 190.424 486.647C179.059 480.838 168.006 474.951 158.025 466.88Q156.101 465.327 154.24 463.7Q152.378 462.073 150.581 460.375Q148.784 458.677 147.054 456.91Q145.324 455.143 143.664 453.311Q142.004 451.479 140.417 449.583Q138.829 447.688 137.316 445.732Q135.804 443.776 134.368 441.763Q132.933 439.75 131.576 437.683Q130.22 435.615 128.945 433.497Q127.67 431.378 126.478 429.212Q125.287 427.046 124.18 424.835Q123.073 422.624 122.053 420.371Q121.034 418.119 120.102 415.829Q119.17 413.539 118.328 411.214Q117.486 408.889 116.735 406.534Q115.984 404.178 115.325 401.795C114.079 397.337 112.721 392.659 112.25 388.053L118.507 385.644L118.687 385.477C119.423 383.575 118.195 379.618 118.125 377.422C115.853 375.615 113.105 374.59 110.463 373.447C108.533 338.992 118.786 304.525 128.573 271.829C131.495 262.07 134.07 251.914 137.76 242.419C130.679 223.191 129.758 200.4 138.421 181.48C142.636 172.275 149.445 164.83 159.111 161.354C162.121 160.272 165.187 159.748 168.361 159.417C174.735 148.164 182.558 138.663 195.526 135.03C204.288 132.576 213.375 134.057 221.23 138.569C221.472 138.708 221.71 138.854 221.95 138.996C230.687 131.091 240.364 125.848 252.496 126.514C259.977 126.924 267.769 130.227 272.788 135.891Q273.893 137.158 274.939 138.475Q275.723 138.09 276.525 137.742Q277.327 137.395 278.145 137.086Q278.963 136.777 279.794 136.508Q280.626 136.239 281.469 136.011Q282.313 135.782 283.166 135.594Q284.02 135.406 284.881 135.259Q285.743 135.112 286.61 135.006Q287.478 134.901 288.35 134.837Q289.221 134.773 290.095 134.751Q290.969 134.729 291.842 134.749Q292.716 134.769 293.588 134.831Q294.46 134.893 295.328 134.997Q296.195 135.101 297.057 135.246Q297.919 135.391 298.773 135.577Q299.627 135.764 300.471 135.991Q301.315 136.218 302.147 136.485C311.536 139.586 317.932 146.017 322.227 154.771Q323.388 157.145 324.487 159.549C339.301 142.505 356.214 124.733 374.653 111.598C407.298 88.3434 454.962 75.089 494.58 72.2827C544.315 68.7599 589.155 76.4854 633.746 99.0401C652.242 108.396 668.76 119.144 684.407 132.764C692.153 139.506 698.813 146.927 705.364 154.8C709.591 143.675 715.04 132.9 726.504 127.789C734.942 124.027 744.982 124.065 753.523 127.434Q754.055 127.646 754.583 127.869C764.528 119.727 772.973 114.303 786.476 115.629C794.715 116.438 803.412 120.382 809.723 125.691C817.111 120.878 824.91 118.807 833.683 120.654C842.939 122.602 851.355 129.368 856.421 137.205C858.808 140.898 860.578 144.968 862.272 149.015C869.927 148.651 876.225 149.257 882.222 154.692C891.522 163.121 894.09 180.986 894.386 192.868C894.631 202.72 891.664 211.279 887.357 220.008C893.482 234.926 897.512 249.693 901.489 265.301C912.481 308.443 920.36 355.811 912.411 400.203C910.38 411.543 906.411 422.188 902.168 432.844C910.16 440.818 915.282 449.749 920.068 459.861C933.055 459.584 944.222 461.874 953.88 471.051C962.251 479.004 966.656 489.145 970.59 499.8C982.297 502.072 991.923 504.795 998.913 515.202C1008.75 529.848 1014.61 555.101 1018.38 572.397C1019.55 577.797 1020.12 583.536 1021.69 588.815C1022.16 590.43 1022.69 591.282 1024 592.357L1024 0L0 0ZM738.89 707.216C729.134 707.969 719.381 709.659 709.702 711.094C691.14 713.845 672.568 716.837 653.884 718.64C636.194 720.347 618.409 720.843 600.73 722.585C536.622 728.901 472.687 736.604 408.435 741.466C373.221 744.131 337.865 745.41 302.614 747.551C302.745 790.652 303.431 857.262 281.112 895.435C274.97 905.939 266.19 916.382 253.931 919.493C239.774 923.086 219.427 923.566 204.531 925.018L162.655 928.877C154.282 929.626 145.645 930.82 137.24 930.616C132.752 930.508 127.927 929.718 124.06 927.337C111.553 919.635 106.47 902.441 103.156 889.015C94.2467 889.527 84.3659 890.863 75.9075 887.361C60.7133 881.068 54.4744 862.073 48.6657 848.106C41.646 848.293 35.6317 847.639 29.6279 843.572C11.3463 831.188 5.65045 795.779 2.2079 775.216C1.43986 770.628 1.04241 765.957 0.104907 761.404L0 760.912L0 1024L1024 1024L1024 738.033C1019.83 747.101 1014.54 756.592 1004.62 760.321C1003.26 760.833 1001.84 761.233 1000.43 761.59C999.04 782.883 996.446 804.792 979.32 819.805C969.97 828.002 956.791 830.443 944.737 831.169C943.654 841.87 937.698 853.846 929.269 860.643C925.439 863.731 919.634 865.213 914.909 866.298C895.241 870.815 874.742 871.998 854.743 874.361C842.357 875.824 825.739 879.469 813.564 878.029C806.357 877.178 799.585 873.387 794.17 868.697C777.164 853.028 767.503 831.192 760.273 809.609C748.405 774.52 741.752 744.354 738.89 707.216ZM324.487 159.549Q323.388 157.145 322.227 154.771C317.932 146.017 311.536 139.586 302.147 136.485Q301.315 136.218 300.471 135.991Q299.627 135.764 298.773 135.577Q297.919 135.391 297.057 135.246Q296.195 135.101 295.328 134.997Q294.46 134.893 293.588 134.831Q292.716 134.769 291.842 134.749Q290.969 134.729 290.095 134.751Q289.221 134.773 288.35 134.837Q287.478 134.901 286.61 135.006Q285.743 135.112 284.881 135.259Q284.02 135.406 283.166 135.594Q282.313 135.782 281.469 136.011Q280.626 136.239 279.794 136.508Q278.963 136.777 278.145 137.086Q277.327 137.395 276.525 137.742Q275.723 138.09 274.939 138.475Q273.893 137.158 272.788 135.891C267.769 130.227 259.977 126.924 252.496 126.514C240.364 125.848 230.687 131.091 221.95 138.996C221.71 138.854 221.472 138.708 221.23 138.569C213.375 134.057 204.288 132.576 195.526 135.03C182.558 138.663 174.735 148.164 168.361 159.417C165.187 159.748 162.121 160.272 159.111 161.354C149.445 164.83 142.636 172.275 138.421 181.48C129.758 200.4 130.679 223.191 137.76 242.419C134.07 251.914 131.495 262.07 128.573 271.829C118.786 304.525 108.533 338.992 110.463 373.447C113.105 374.59 115.853 375.615 118.125 377.422C118.165 377.183 118.209 376.945 118.246 376.705C118.792 373.113 117.919 368.627 117.836 364.941C117.67 357.525 118.158 349.727 119.217 342.384C121.67 325.372 126.582 308.703 131.461 292.263Q138.623 267.767 146.569 243.514C139.593 224.297 136.762 205.111 145.681 185.914C149.405 177.899 155.548 171.571 163.983 168.597C167.737 167.273 171.443 166.894 175.393 166.588C179.34 157.005 184.036 148.039 194.279 143.971C200.529 141.49 207.693 141.273 213.883 144.033C217.439 145.619 220.386 148.038 223.145 150.743C230.111 143.021 237.218 135.862 248.23 135.113C255.035 134.649 261.396 136.888 266.467 141.433C269.089 143.785 271.053 146.508 272.862 149.518C280.554 144.722 288.536 141.75 297.733 143.758Q298.316 143.884 298.891 144.04Q299.467 144.196 300.034 144.381Q300.601 144.566 301.158 144.779Q301.715 144.992 302.26 145.234Q302.805 145.475 303.337 145.744Q303.87 146.013 304.388 146.308Q304.906 146.604 305.408 146.925Q305.91 147.247 306.396 147.593Q306.881 147.94 307.348 148.31Q307.815 148.681 308.263 149.075Q308.71 149.469 309.138 149.885Q309.565 150.301 309.97 150.739Q310.375 151.176 310.758 151.633Q311.141 152.091 311.5 152.567Q311.859 153.043 312.193 153.537Q312.527 154.031 312.836 154.541C316.716 160.813 317.044 167.386 317.01 174.513L325.844 174.282C356.81 126.448 405.23 97.8055 460.297 85.9922C507.203 75.9296 560.81 78.5121 605.93 95.4709C622.502 101.7 638.272 110.206 653.098 119.841C665.806 128.099 679.011 137.371 688.865 149.001C693.305 154.241 696.906 160.151 701.155 165.545L711.776 165.006C713.82 154.142 716.467 143.724 726.054 137.01C731.279 133.351 737.744 131.788 744.039 132.99C748.782 133.895 753.322 136.12 757.502 138.47C762.856 131.056 769.158 125.149 778.668 123.763C786.801 122.577 795.326 125.523 801.772 130.42C803.79 131.953 805.613 133.736 807.355 135.568C815.044 130.914 823.252 127.051 832.502 129.154C839.746 130.8 846.154 135.646 849.999 141.964C852.983 146.867 854.017 152.143 854.92 157.733C862.234 156.785 871.267 155.539 877.478 160.56C883.995 165.827 884.511 180.556 885.085 188.467C885.982 200.839 884.04 207.885 877.454 218.323C897.308 265.591 912.508 336.742 906 388.026Q905.46 392.383 904.632 396.695Q903.803 401.007 902.69 405.253Q901.576 409.5 900.182 413.664Q898.787 417.827 897.119 421.888Q894.128 429.12 890.977 436.284C905.903 445.08 908.99 453.55 915.448 469.069C927.185 468.164 938.696 468.199 948.119 476.417C957.452 484.557 961.583 497.592 965.486 508.947C971.504 507.459 976.487 507.378 981.985 510.71C997.898 520.353 1003.98 548.239 1007.78 565.236C1016.2 602.923 1020.08 640.644 1020.86 679.209C1021.24 698.298 1022.08 726.965 1011.89 743.533C1008.86 748.45 1004.1 752.222 998.417 753.513C996.494 753.949 994.476 753.994 992.512 754.078C991.843 773.672 990.212 798.716 975.049 813.051C965.691 821.899 952.509 822.554 940.323 822.493C937.405 832.488 932.929 850.382 923.164 856.021C919.731 858.004 915.204 859.039 911.347 859.791C897.69 862.454 883.431 863.198 869.62 864.967C854.822 866.862 838.664 870.011 823.831 870.595C819.46 870.768 815.484 870.744 811.264 869.417C796.364 864.731 786.638 849.61 779.943 836.448C772.282 821.387 766.724 805.581 762.003 789.386C752.627 757.221 748.404 730.264 745.739 696.9C745.342 696.237 745.313 695.764 744.493 695.58C741.052 694.805 715.515 699.81 710.164 700.715C700.502 702.35 690.862 704.26 681.173 705.705Q653.738 709.527 626.17 712.222C598.003 715.096 569.741 717.014 541.573 719.881C502.271 723.881 463.096 729.285 423.745 732.793C401.074 734.814 378.4 735.787 355.68 736.967C335.415 738.019 315.218 739.234 294.933 740.023C295.19 784.746 299.44 870.484 265.674 904.329C262.229 907.782 257.759 911.278 253.024 912.661C248.351 914.026 243.093 914.357 238.255 914.913C222.003 916.783 205.606 917.265 189.312 918.729C172.315 920.256 153.759 923.937 136.818 923.644C131.898 923.558 127.415 920.958 124.079 917.454C114.574 907.47 112.083 892.66 107.028 880.298C96.2348 881.69 83.2518 885.012 73.8996 877.668C62.6647 868.846 58.0583 852.215 54.7801 838.983C48.1937 840.484 41.2524 842.14 35.0959 838.277C18.444 827.827 13.9245 798.382 10.2521 780.59C5.01668 755.226 1.25466 728.459 0.998591 702.547C0.682027 693.028 0.852741 683.473 0.995805 673.951C1.11117 660.225 1.45615 644.862 4.57978 631.518C6.48284 623.389 10.3971 614.58 17.8517 610.127C24.3274 606.259 31.3342 607.21 38.2687 608.891C40.1396 594.391 42.1995 576.162 53.1423 565.396C62.46 556.229 75.333 555.433 87.6738 555.51C90.7528 542.64 94.3478 530.3 102.787 519.81C106.122 515.664 110.933 510.674 115.863 508.503C123.987 504.925 133.537 504.57 142.229 503.302L172.225 498.719C183.554 496.922 194.867 494.318 206.271 493.107C219.646 491.685 227.696 492.617 238.327 501.348C267.084 524.963 281.215 591.462 286.675 626.697C288.694 639.727 289.858 652.767 291.143 665.878C304.011 662.627 317.711 661.684 330.867 659.901C373.728 654.09 417.111 649.421 460.439 650.612C485.579 651.303 516.429 655.774 540.715 653.518C553.96 652.288 566.874 648.578 579.765 645.486L630.699 633.611C654.957 628.201 679.971 623.299 704.88 622.561C715.098 622.258 725.331 623.592 735.149 623.394C736.325 623.37 736.473 623.54 737.305 622.636C737.437 611.145 736.894 599.668 736.951 588.178Q737.139 562.415 740.21 536.834C741.477 526.787 742.914 516.788 745.029 506.879C746.518 499.908 748.804 492.925 749.596 485.847L743.177 486.575C730.037 534.794 709.96 582.497 664.451 608.573C606.088 642.015 509.924 643.253 445.626 630.332L461.109 639.912C453.514 640.09 445.848 640.027 438.267 640.474C431.734 640.859 425.132 641.813 418.604 641.961C420.259 637.386 424.243 633.809 427.913 630.816C431.268 629.717 434.755 629.167 438.219 628.527C418.143 622.913 399.396 616.549 380.878 606.794C343.162 586.927 317.138 559.559 301.784 519.403C296.523 505.644 292.706 491.326 288.347 477.26C269.586 483.714 250.202 487.426 230.289 486.137C184.983 483.202 143.26 455.499 126.435 412.57Q123.092 404.066 120.975 395.177C120.392 392.649 120.065 387.419 118.507 385.644L112.25 388.053C112.721 392.659 114.079 397.337 115.325 401.795Q115.984 404.178 116.735 406.534Q117.486 408.889 118.328 411.214Q119.17 413.539 120.102 415.829Q121.034 418.119 122.053 420.371Q123.073 422.624 124.18 424.835Q125.287 427.046 126.478 429.212Q127.67 431.378 128.945 433.497Q130.22 435.615 131.576 437.683Q132.933 439.75 134.368 441.763Q135.804 443.776 137.316 445.732Q138.829 447.688 140.417 449.583Q142.004 451.479 143.664 453.311Q145.324 455.143 147.054 456.91Q148.784 458.677 150.581 460.375Q152.378 462.073 154.24 463.7Q156.101 465.327 158.025 466.88C168.006 474.951 179.059 480.838 190.424 486.647C174.649 491.182 157.073 492.747 140.814 495.17C117.117 498.701 102.789 500.316 89.9554 523.21C85.7742 530.668 83.2495 538.939 80.603 547.029C66.5059 548.505 53.5067 550.448 43.9847 562.042C35.4271 572.462 33.4596 585.785 31.668 598.709C22.8784 598.516 14.5866 600.648 8.01821 606.764C4.43154 610.104 2.28878 614.092 0 618.351L0 673.535L0 702.965L0 760.912L0.104907 761.404C1.04241 765.957 1.43986 770.628 2.2079 775.216C5.65045 795.779 11.3463 831.188 29.6279 843.572C35.6317 847.639 41.646 848.293 48.6657 848.106C54.4744 862.073 60.7133 881.068 75.9075 887.361C84.3659 890.863 94.2467 889.527 103.156 889.015C106.47 902.441 111.553 919.635 124.06 927.337C127.927 929.718 132.752 930.508 137.24 930.616C145.645 930.82 154.282 929.626 162.655 928.877L204.531 925.018C219.427 923.566 239.774 923.086 253.931 919.493C266.19 916.382 274.97 905.939 281.112 895.435C303.431 857.262 302.745 790.652 302.614 747.551C337.865 745.41 373.221 744.131 408.435 741.466C472.687 736.604 536.622 728.901 600.73 722.585C618.409 720.843 636.194 720.347 653.884 718.64C672.568 716.837 691.14 713.845 709.702 711.094C719.381 709.659 729.134 707.969 738.89 707.216C741.752 744.354 748.405 774.52 760.273 809.609C767.503 831.192 777.164 853.028 794.17 868.697C799.585 873.387 806.357 877.178 813.564 878.029C825.739 879.469 842.357 875.824 854.743 874.361C874.742 871.998 895.241 870.815 914.909 866.298C919.634 865.213 925.439 863.731 929.269 860.643C937.698 853.846 943.654 841.87 944.737 831.169C956.791 830.443 969.97 828.002 979.32 819.805C996.446 804.792 999.04 782.883 1000.43 761.59C1001.84 761.233 1003.26 760.833 1004.62 760.321C1014.54 756.592 1019.83 747.101 1024 738.033L1024 651.593L1024 632.949L1024 622.468L1024 600.513L1024 592.357C1022.69 591.282 1022.16 590.43 1021.69 588.815C1020.12 583.536 1019.55 577.797 1018.38 572.397C1014.61 555.101 1008.75 529.848 998.913 515.202C991.923 504.795 982.297 502.072 970.59 499.8C966.656 489.145 962.251 479.004 953.88 471.051C944.222 461.874 933.055 459.584 920.068 459.861C915.282 449.749 910.16 440.818 902.168 432.844C906.411 422.188 910.38 411.543 912.411 400.203C920.36 355.811 912.481 308.443 901.489 265.301C897.512 249.693 893.482 234.926 887.357 220.008C891.664 211.279 894.631 202.72 894.386 192.868C894.09 180.986 891.522 163.121 882.222 154.692C876.225 149.257 869.927 148.651 862.272 149.015C860.578 144.968 858.808 140.898 856.421 137.205C851.355 129.368 842.939 122.602 833.683 120.654C824.91 118.807 817.111 120.878 809.723 125.691C803.412 120.382 794.715 116.438 786.476 115.629C772.973 114.303 764.528 119.727 754.583 127.869Q754.055 127.646 753.523 127.434C744.982 124.065 734.942 124.027 726.504 127.789C715.04 132.9 709.591 143.675 705.364 154.8C698.813 146.927 692.153 139.506 684.407 132.764C668.76 119.144 652.242 108.396 633.746 99.0401C589.155 76.4854 544.315 68.7599 494.58 72.2827C454.962 75.089 407.298 88.3434 374.653 111.598C356.214 124.733 339.301 142.505 324.487 159.549ZM738.215 278.418C743.598 293.868 746.923 310.63 749.778 326.729C757.17 328.892 764.504 330.998 772.023 332.674C772.075 318.458 771.431 304.281 771.048 290.074C759.47 288.657 748.697 283.224 738.215 278.418Z"/>
	<path fill="#D593E7" d="M717.08 177.751C719.995 177.921 721.917 178.054 723.956 180.297C727.056 183.706 726.88 188.738 726.535 193.034C726.379 194.974 726.09 196.87 725.727 198.782C724.906 196.945 724.554 194.964 724.069 193.018C722.572 187.018 720.838 182.709 717.08 177.751Z"/>
	<path fill="#FEFEFE" d="M777.66 792.998L778.674 792.901C783.157 799.143 787.205 811.29 790.559 818.774C793.535 825.415 797.238 831.927 800.986 838.161C802.326 840.39 803.674 842.771 805.267 844.826C807.4 847.575 812.415 850.927 812.949 854.376C793.625 844.122 785.063 812.132 777.66 792.998Z"/>
	<path fill="#E8B8F2" d="M164.22 229.06C165.568 221.349 169.522 213.841 174.694 207.956C176.316 212.617 177.581 217.38 179.158 222.046C177.67 225.297 176.114 228.726 172.44 229.953C169.58 230.908 166.908 230.115 164.22 229.06Z"/>
	<path fill="#FEFEFE" d="M747.038 150.724C754.992 152.733 760.771 157.199 764.932 164.228C771.328 175.031 774.032 189.496 770.956 201.77C770.838 202.24 770.689 202.703 770.545 203.167C769.083 202.6 767.395 201.879 766.32 200.701C764.221 198.398 749.469 161.03 747.894 156.05C747.319 154.23 747.02 152.637 747.038 150.724Z"/>
	<path fill="#E8B8F2" d="M779 191.107C785.826 195.067 791.804 200.31 798.258 204.813C802.022 207.438 805.998 209.527 810.037 211.681C808.771 213.743 807.007 215.891 805.343 217.656C801.965 221.24 797.841 223.626 792.818 223.683C785.386 223.767 779.835 219.147 774.922 214.181C777.315 206.503 778.417 199.095 779 191.107Z"/>
	<path fill="#D593E7" d="M865.388 163.702C866.228 163.588 867.024 163.498 867.874 163.536C870.2 163.641 872.074 164.384 873.572 166.213C879.701 173.699 877.333 189.976 876.629 198.998L866.67 199.137L856.46 199.848C858.431 187.649 857.763 176.786 856.245 164.627L865.388 163.702Z"/>
	<path fill="#D593E7" d="M164.22 229.06C161.304 225.935 159.198 222.686 157.642 218.7C154.15 209.758 154.058 198.916 157.992 190.103C161.486 182.275 167.107 178.245 174.868 175.273C173.343 186.414 172.906 196.818 174.694 207.956C169.522 213.841 165.568 221.349 164.22 229.06Z"/>
	<path fill="#E5D9F7" d="M274.793 164.603C274.824 164.8 274.859 164.997 274.887 165.195C276.854 178.657 266.749 198.361 279.632 208.493C283.195 211.296 288.154 212.936 292.63 213.246C292.526 214.393 292.356 215.525 292.192 216.665C291.386 217.595 291.282 217.598 289.976 217.586C287.443 217.562 284.835 216.868 282.313 216.571C276.972 215.942 270.97 217.002 265.844 218.497C260.911 210.819 259.67 202.748 260.495 193.759C261.536 182.426 265.917 171.933 274.793 164.603Z"/>
	<path fill="#FEFEFE" d="M787.086 142.879C794.144 143.338 799.806 145.856 804.539 151.216C813.359 161.206 816.115 176.519 815.236 189.448Q814.785 195.842 813.53 202.128L807.099 202.008C799.495 191.197 799.009 176.64 795.769 164.177C793.77 156.488 790.911 149.793 787.086 142.879Z"/>
	<path fill="#E8B8F2" d="M221.198 225.07Q219.765 226.033 218.284 226.921C213.241 229.934 207.437 231.096 201.699 229.564C195.818 227.993 191.253 223.803 188.194 218.663C181.67 207.702 180.748 192.793 183.992 180.645C185.901 173.5 189.704 166.523 196.274 162.705C196.253 162.875 196.235 163.045 196.211 163.214C195.557 167.885 193.672 172.358 192.585 176.946C190.267 186.734 189.663 202.104 195.762 210.689C197.785 213.537 200.645 215.385 204.117 215.884C207.777 216.41 213.534 215.294 216.848 213.625C217.828 217.671 219.391 221.335 221.198 225.07Z"/>
	<path fill="#E8B8F2" d="M235.696 155.912C235.731 156.205 235.773 156.498 235.799 156.792C236.131 160.46 233.386 167.671 232.483 171.509C230.003 182.058 227.252 202.702 236.593 210.865C241.478 215.134 249.076 214.053 255.109 214.021C256.478 216.307 257.394 218.663 258.34 221.139C253.35 224.391 248.107 227.364 242.975 230.389Q241.357 230.094 239.751 229.739C234.78 228.625 232 225.962 229.34 221.671C221.324 208.743 219.387 187.973 222.948 173.406C224.881 165.495 228.791 160.147 235.696 155.912Z"/>
	<path fill="#E5D9F7" d="M196.274 162.705C200.791 160.211 204.928 159.68 209.926 161.112C212.711 161.91 215.438 163.18 217.917 164.673C212.728 181.314 211.368 196.773 216.848 213.625C213.534 215.294 207.777 216.41 204.117 215.884C200.645 215.385 197.785 213.537 195.762 210.689C189.663 202.104 190.267 186.734 192.585 176.946C193.672 172.358 195.557 167.885 196.211 163.214C196.235 163.045 196.253 162.875 196.274 162.705Z"/>
	<path fill="#FEFEFE" d="M274.793 164.603C279.676 161.385 284.375 159.002 290.43 160.145C294.526 160.919 298.927 162.807 301.271 166.426C303.665 170.124 303.53 174.648 302.519 178.774C301.243 183.986 298.699 189.112 296.96 194.202C294.861 200.344 293.692 206.853 292.63 213.246C288.154 212.936 283.195 211.296 279.632 208.493C266.749 198.361 276.854 178.657 274.887 165.195C274.859 164.997 274.824 164.8 274.793 164.603Z"/>
	<path fill="#E5D9F7" d="M603.305 237.499C623.865 237.693 644.449 236.592 665.013 236.546C668.402 245.715 676.03 254.34 679.776 263.904C672.685 263.767 665.613 263.6 658.592 262.511C639.194 259.502 618.346 250.209 603.305 237.499Z"/>
	<path fill="#E5D9F7" d="M765.079 153.075C771.51 146.951 778.429 144.14 787.086 142.879C790.911 149.793 793.77 156.488 795.769 164.177C799.009 176.64 799.495 191.197 807.099 202.008L813.53 202.128C812.571 205.407 811.522 208.595 810.037 211.681C805.998 209.527 802.022 207.438 798.258 204.813C791.804 200.31 785.826 195.067 779 191.107C778.446 187.979 778.279 184.786 777.688 181.648C775.639 170.762 771.174 162.167 765.079 153.075Z"/>
	<path fill="#E8B8F2" d="M790.397 281.373C797.976 278.95 805.459 276.194 812.97 273.566C803.014 300.662 804.919 322.222 807.643 350.01C808.765 361.456 809.786 373.094 808.596 384.586C803.074 372.26 796.882 361.395 791.048 349.446C794.886 326.915 792.807 303.967 790.397 281.373Z"/>
	<path fill="#E5D9F7" d="M727.43 172.529C728.803 166.458 730.591 160.093 735.048 155.508C738.514 151.942 742.181 150.772 747.038 150.724C747.02 152.637 747.319 154.23 747.894 156.05C749.469 161.03 764.221 198.398 766.32 200.701C767.395 201.879 769.083 202.6 770.545 203.167C769.487 206.415 768.061 209.937 765.575 212.35C763.569 214.296 761.061 215.314 758.253 215.125C750.744 214.619 743.339 206.598 738.595 201.365C737.883 191.458 735.068 179.529 727.43 172.529Z"/>
	<path fill="#E5D9F7" d="M235.696 155.912C241.292 153.383 246.955 151.235 253.095 153.475C258.102 155.302 261.398 159.384 264.38 163.588C255.839 180.775 249.867 194.69 255.109 214.021C249.076 214.053 241.478 215.134 236.593 210.865C227.252 202.702 230.003 182.058 232.483 171.509C233.386 167.671 236.131 160.46 235.799 156.792C235.773 156.498 235.731 156.205 235.696 155.912Z"/>
	<path fill="#FEFEFE" d="M288.431 285.021C289.859 288.294 284.343 309.202 283.607 314.378C282.083 325.089 281.563 335.978 280.827 346.766C269.821 344.123 259.704 345.814 248.794 347.89L248.21 347.825L247.572 347.023C247.681 342.169 250.259 336.476 251.253 331.585C253.461 320.719 255.004 309.735 256.717 298.784C268.571 296.197 278.06 291.091 288.431 285.021Z"/>
	<path fill="#90CBE5" d="M274.269 302.987C275.162 302.891 274.685 302.838 275.674 303.303C276.486 307.421 273.957 330.938 273.662 336.684Q267.265 336.686 260.875 336.99C260.456 336.988 259.885 336.797 259.471 336.704C257.836 332.44 262.225 312.217 263.205 306.431C266.859 305.196 270.583 304.126 274.269 302.987Z"/>
	<path fill="#E5D9F7" d="M825.827 145.718C831.612 145.679 836.952 147.499 841.074 151.66C849.159 159.823 851.299 174.009 850.943 184.997Q850.854 187.212 850.646 189.42C849.71 195.653 848.512 201.674 845.715 207.374C843.054 212.794 838.888 218.131 832.914 219.989C826.633 221.944 821.391 219.43 815.96 216.521C826.325 193.793 822.66 174.879 815.044 151.909C818.576 149.031 821.321 146.842 825.827 145.718Z"/>
	<path fill="#FEFEFE" d="M825.827 145.718C831.612 145.679 836.952 147.499 841.074 151.66C849.159 159.823 851.299 174.009 850.943 184.997Q850.854 187.212 850.646 189.42C848.731 190.714 847.037 192.429 845.322 193.976C842.091 193.993 838.999 193.826 835.79 193.448C829.443 178.68 829.24 161.376 825.827 145.718Z"/>
	<path fill="#D593E7" d="M968.159 520.328C971.298 521.665 974.437 522.982 977.147 525.088C996.642 542.989 1005.81 632.179 1006.98 659.508Q1007.06 661.228 1007.06 662.95C1008.11 667.792 1007.5 674.045 1007.51 679.034C1007.55 694.536 1008.97 720.814 1001.01 734.202C998.82 737.879 995.798 739.026 991.818 740.054C990.923 731.485 991.103 722.878 990.74 714.282Q989.693 693.979 987.992 673.721C985.005 639.449 981.644 604.98 976.737 570.927C974.292 553.959 970.93 537.228 968.159 520.328Z"/>
	<path fill="#E8B8F2" d="M977.147 525.088C996.642 542.989 1005.81 632.179 1006.98 659.508Q1007.06 661.228 1007.06 662.95C1006.89 666.022 1007.25 669.064 1006.74 672.125C1006.49 673.639 1006.18 674.766 1004.86 675.694C1003.62 675.62 1002.6 675.089 1001.81 674.064C1001.47 673.619 1001.31 673.266 1001.15 672.763C998.174 663.445 997.251 651.469 996.084 641.701C994.436 627.911 992.834 614.064 990.479 600.373C988.355 588.02 976.062 533.121 977.147 525.088Z"/>
	<path fill="#FEFEFE" d="M919.672 483.963C927.423 484.096 935.077 484.683 940.879 490.562C968.031 518.072 980.08 690.809 979.501 734.187C976.883 730.54 973.551 708.795 972.26 702.973C967.287 680.533 961.5 658.369 956.978 635.817Q952.554 613.677 948.729 591.426C944.517 566.927 939.441 520.696 923.978 501.963C922.301 495.997 920.889 490.041 919.672 483.963Z"/>
	<path fill="#E8B8F2" d="M923.978 501.963C939.441 520.696 944.517 566.927 948.729 591.426Q952.554 613.677 956.978 635.817C961.5 658.369 967.287 680.533 972.26 702.973C973.551 708.795 976.883 730.54 979.501 734.187C979.554 734.472 979.612 734.757 979.66 735.044C980.481 739.905 979.977 745.413 979.827 750.333C979.342 766.172 978.926 785.545 969.269 798.883C963.083 807.428 952.951 808.244 943.346 809.723C944.145 793.002 947.88 776.545 948.67 759.729C951.267 704.452 947.379 649.53 940.456 594.704Q936.145 562.609 929.699 530.874C927.823 521.231 924.767 511.777 923.978 501.963Z"/>
	<path fill="#FEFEFE" d="M851.496 213.348C855.341 217.259 858.245 220.968 860.656 225.91C874.134 253.54 888.633 332.853 888.489 363.864C888.362 391.109 880.893 413.09 865.522 435.452C858.507 436.522 851.484 436.781 844.405 437.12C846.059 428.503 847.31 419.578 848.224 410.854C848.822 405.14 849.025 399.32 850.034 393.664C852.125 381.938 855.711 370.523 857.647 358.714C864.23 318.579 861.407 282.808 846.798 244.824C844.271 238.254 841.851 231.534 838.678 225.243C843.625 221.938 847.49 217.693 851.496 213.348Z"/>
	<path fill="#E8B8F2" d="M185.377 230.828C193.096 236.543 199.983 238.07 209.391 239.071C202.626 246.91 194.107 245.364 185.292 248.238C182.691 254.862 181.175 262.046 179.469 268.945C173.086 294.768 168.387 321.279 166.797 347.856C166.491 352.972 165.957 358.175 166.061 363.298C166.386 379.384 168.663 395.696 175.083 410.548C184.433 432.177 201.234 447.451 223.02 456.042C229.839 458.732 244.86 463.79 252.026 463.542C242.525 465.644 231.241 464.498 221.764 462.81C196.205 458.258 171.914 444.4 156.989 422.907C126.968 379.676 141.834 328.357 155.706 282.497C160.129 267.875 164.966 253.121 167.656 238.059C174.973 237.311 179.912 235.958 185.377 230.828Z"/>
	<path fill="#FEFEFE" d="M824.358 450.568C834.929 450.227 845.532 449.144 856.081 448.351C862.716 447.853 869.709 446.836 876.319 447.873C880.593 448.543 884.504 450.135 887.71 453.086C911.843 475.303 927.307 578.919 931.298 615.195Q936.157 660.45 937.311 705.951C938.049 740.344 936.722 804.23 921.878 834.644C917.579 823.142 919.136 778.255 918.995 762.792C918.9 752.399 918.372 741.803 917.92 731.407C916.736 704.215 914.651 676.749 911.511 649.714Q906.54 605.759 898.092 562.337C893.365 537.81 888.524 511.744 877.498 489.127Q876.178 486.35 874.608 483.706Q873.037 481.063 871.231 478.575Q869.424 476.087 867.396 473.776Q865.367 471.465 863.135 469.35C857.206 463.836 849.463 459.312 841.766 456.803C837.437 455.391 827.229 453.821 824.072 451.321L824.358 450.568Z"/>
	<path fill="#FEFEFE" d="M665.013 236.546C675.508 236.293 686.042 235.84 696.539 235.99C736.014 291.778 738.457 393.376 727.421 458.069C719.734 503.13 703.508 556.208 664.235 583.761C655.641 589.79 644.827 595.725 634.554 598.194C634.933 596.152 637.838 593.939 639.329 592.422C648.145 583.457 656.53 573.909 663.719 563.571C680.949 538.796 693.68 492.979 698.675 463.232C699.924 455.793 701.916 447.247 700.598 439.747C700.523 438.447 700.868 436.92 701.035 435.616C703.878 429.799 703.64 422.714 704.098 416.425C705.971 390.69 703.952 365.768 699.943 340.295C698.467 330.914 696.123 321.55 694.954 312.147L694.89 311.603C696.87 311.29 699.678 310.991 701.216 309.617C702.164 308.77 702.37 308.53 702.371 307.292C702.24 307.17 702.122 307.033 701.979 306.926C700.257 305.633 697.587 306.382 695.634 306.693C691.201 293.278 688.695 278.046 680.884 266.055L679.776 263.904C676.03 254.34 668.402 245.715 665.013 236.546Z"/>
	<path fill="#E8B8F2" d="M321.473 244.059Q330.555 243.287 339.668 243.411C336.817 252.858 336.05 262.994 334.787 272.763C329.796 311.37 328.339 348.901 333.934 387.53C334.894 394.158 335.677 403.147 338.964 408.979C339.339 409.646 339.829 410.173 340.341 410.734C337.343 420.513 331.522 431.073 337.026 441.21C338.56 444.034 341.037 446.101 344.137 446.991Q344.813 447.179 345.505 447.297Q346.197 447.415 346.897 447.461Q347.597 447.508 348.298 447.483Q348.999 447.459 349.694 447.363Q350.39 447.267 351.071 447.1Q351.753 446.934 352.414 446.699Q353.075 446.464 353.709 446.163Q354.343 445.862 354.943 445.498C359.759 442.626 362.356 437.557 363.808 432.319C367.214 438.73 366.538 449.8 367.177 457.017C368.722 474.459 373.99 502.624 383.913 516.697C382.003 526.262 378.991 539.26 384.565 548.139C386.278 550.867 388.853 552.626 392.003 553.278C395.699 554.044 399.868 553.541 403.016 551.374C405.794 549.461 407.571 546.679 409.285 543.851C409.374 543.954 409.465 544.055 409.552 544.159C411.593 546.6 413.048 549.659 414.626 552.415C417.998 558.303 421.385 564.09 425.976 569.132C447.284 592.537 475.888 602.668 505.942 609.2C516.346 611.461 527.402 613.595 537.995 614.449C539.028 614.532 540.072 614.539 541.108 614.547C532.558 616.026 523.375 615.503 514.732 615.244C485.758 614.373 457.468 610.859 429.689 602.376C387.554 589.507 349.883 565.783 328.818 525.852C294.199 460.225 297.566 349.076 312.363 278.162C314.777 266.594 317.966 255.336 321.473 244.059Z"/>
	<path fill="#D593E7" d="M350.927 174.53C366.411 154.85 383.427 140.429 405.451 128.624C451.744 103.81 510.645 94.8155 562.236 104.62Q568.803 105.921 575.277 107.624Q581.75 109.328 588.107 111.428Q594.463 113.528 600.678 116.017Q606.892 118.505 612.941 121.373Q623.069 126.17 632.734 131.841Q642.4 137.511 651.528 144.012C653.426 145.337 656.184 147.802 658.333 148.354C658.548 148.409 658.765 148.452 658.982 148.501C661.888 149.427 664.748 150.166 666.309 153.067C666.89 154.144 667.353 155.314 667.819 156.443C669.582 159.677 673.185 162.912 675.492 165.917L538.847 169.351C476.223 171.17 413.571 173.613 350.927 174.53Z"/>
	<path fill="#FEFEFE" d="M658.982 148.501C661.888 149.427 664.748 150.166 666.309 153.067C666.89 154.144 667.353 155.314 667.819 156.443C667.199 158.422 666.4 160.314 664.687 161.599C663.309 162.632 661.624 162.981 659.933 162.74C657.777 162.432 655.721 161.175 654.487 159.378C653.419 157.822 653.123 156.04 653.617 154.217C654.302 151.686 656.87 149.802 658.982 148.501Z"/>
	<path fill="#FEFEFE" d="M620.292 136.534C625.062 136.395 629.193 136.591 632.811 140.212C634.891 142.293 636.09 145.17 635.909 148.123C635.627 152.735 633.032 155.367 629.831 158.299C627.736 158.713 625.371 159.198 623.252 158.76C620.424 158.176 617.873 156.197 616.379 153.762C614.53 150.748 613.867 146.7 614.882 143.287C615.844 140.056 617.399 138.165 620.292 136.534Z"/>
	<path fill="#FEFEFE" d="M539.822 108.712C557.1 107.363 586.122 111.705 599.692 123.502C602.196 125.679 605.392 129.09 605.468 132.644C605.504 134.344 604.782 135.768 603.616 136.956C595.982 144.734 578.341 144.231 568.225 144.504C551.597 144.555 524.611 145.77 509.807 138.609C504.859 136.215 502.471 133.259 500.701 128.173C501.41 125.079 502.132 122.48 504.246 120.012C512.159 110.773 528.523 109.542 539.822 108.712Z"/>
	<path fill="#E5D9F7" d="M739.605 212.592C742.082 214.607 744.664 216.786 747.426 218.393C754.301 222.392 760.564 222.554 768.068 220.627C774.529 226.106 783.443 231.476 792.163 231.456C800.45 231.436 806.294 226.702 811.828 221.189C813.858 222.938 815.973 224.481 818.402 225.633C825.234 228.875 831.87 227.646 838.678 225.243C841.851 231.534 844.271 238.254 846.798 244.824C861.407 282.808 864.23 318.579 857.647 358.714C855.711 370.523 852.125 381.938 850.034 393.664C849.025 399.32 848.822 405.14 848.224 410.854C847.31 419.578 846.059 428.503 844.405 437.12C840.068 437.837 835.425 437.986 831.036 438.402C816.736 439.756 802.225 440.401 787.979 442.059C770.053 444.146 768.971 449.396 758.762 462.452C755.228 462.829 751.738 462.952 748.185 463.01C756.877 424.819 753.703 387.688 752.443 349.132C763.406 352.641 774.98 354.771 786.187 357.407Q787.724 360.516 789.302 363.605C792.31 369.496 800.774 386.152 806.895 388.134L807.772 387.651C808.289 386.567 808.485 385.782 808.596 384.586C809.786 373.094 808.765 361.456 807.643 350.01C804.919 322.222 803.014 300.662 812.97 273.566C816.734 271.628 823.711 268.578 826.009 264.925C826.532 264.094 826.347 264.089 826.181 263.202C824.532 262.167 822.982 262.129 821.1 262.476C815.474 263.513 809.93 266.105 804.356 267.568C789.154 271.56 769.194 271.814 754.44 266.125C745.966 262.858 738.525 257.195 734.856 248.684C729.396 236.017 734.985 224.44 739.605 212.592Z"/>
	<path fill="#E5D9F7" d="M226.229 231.798L226.836 232.223C228.751 233.546 238.475 237.411 238.682 238.934C238.786 239.698 238.647 240.255 238.479 240.993C239.332 241.73 239.93 241.922 241.019 242.184C245.039 240.08 248.421 236.601 252.232 234.096C261.307 228.13 276.894 221.334 287.912 224.707C292.023 225.966 295.338 228.977 297.269 232.792C299.506 237.211 299.17 241.95 297.501 246.495C292.856 259.138 278.609 269.573 266.744 274.807C264.577 275.763 262.376 276.7 260.135 277.469C248.86 281.775 236.809 284.037 224.824 281.849C221.929 281.32 219.203 280.23 216.358 279.658C216.472 281.008 216.683 281.538 217.741 282.443C222.841 286.807 233.346 287.528 239.811 288.59C237.822 311.758 231.556 351.688 219.49 371.641C218.018 374.076 213.385 379.061 215.47 381.835C220.674 382.777 231.046 373.754 236.217 371.643C243.816 368.54 252.527 366.708 260.744 366.858C267.363 366.978 273.632 368.723 279.975 370.433C279.688 399.235 280.936 427.05 284.761 455.613C274.21 459.632 263.446 463.358 252.026 463.542C244.86 463.79 229.839 458.732 223.02 456.042C201.234 447.451 184.433 432.177 175.083 410.548C168.663 395.696 166.386 379.384 166.061 363.298C165.957 358.175 166.491 352.972 166.797 347.856C168.387 321.279 173.086 294.768 179.469 268.945C181.175 262.046 182.691 254.862 185.292 248.238C194.107 245.364 202.626 246.91 209.391 239.071C215.845 237.5 220.667 235.387 226.229 231.798Z"/>
	<path fill="#E8B8F2" d="M216.358 279.658C216.829 270.908 204.543 263.046 203.434 254.953C203.298 253.955 203.257 254.352 203.914 253.48C207.398 254.389 211.205 261.404 213.983 264.033C216.929 266.822 220.609 269.088 224.286 270.77C230.084 273.424 236.543 274.8 242.871 275.369C247.905 275.821 255.542 275.405 260.135 277.469C248.86 281.775 236.809 284.037 224.824 281.849C221.929 281.32 219.203 280.23 216.358 279.658Z"/>
	<path fill="#D593E7" d="M364.127 185.575L588.436 180.308L660.812 179.139C679.47 178.942 698.48 179.218 717.08 177.751C720.838 182.709 722.572 187.018 724.069 193.018C724.554 194.964 724.906 196.945 725.727 198.782L725.486 200.912C723.919 209.879 720.832 218.025 717.621 226.497C672.741 226.352 627.747 228.738 582.873 229.771L306.898 236.021C305.351 230.664 303.452 224.92 299.098 221.197C301.037 209.159 304.228 198.152 308.471 186.737C326.845 187.111 345.553 185.296 364.127 185.575Z"/>
	<path fill="#E8B8F2" d="M364.127 185.575L588.436 180.308L660.812 179.139C679.47 178.942 698.48 179.218 717.08 177.751C720.838 182.709 722.572 187.018 724.069 193.018C724.554 194.964 724.906 196.945 725.727 198.782L725.486 200.912C713.201 202.812 700.073 202.486 687.649 202.921L614.445 205.14Q542.333 207.635 470.192 209.016C440.898 209.531 406.624 211.223 377.783 207.571C372.106 206.852 360.621 205.749 356.977 200.658C353.974 196.463 355.312 190.688 356.149 186.011C358.853 186.007 361.437 185.905 364.127 185.575Z"/>
	<path fill="#E8B8F2" d="M808.255 451.549C813.611 451.54 819.016 450.955 824.358 450.568L824.072 451.321C827.229 453.821 837.437 455.391 841.766 456.803C849.463 459.312 857.206 463.836 863.135 469.35Q865.367 471.465 867.396 473.776Q869.424 476.087 871.231 478.575Q873.037 481.063 874.608 483.706Q876.178 486.35 877.498 489.127C888.524 511.744 893.365 537.81 898.092 562.337Q906.54 605.759 911.511 649.714C914.651 676.749 916.736 704.215 917.92 731.407C918.372 741.803 918.9 752.399 918.995 762.792C919.136 778.255 917.579 823.142 921.878 834.644C921.227 836.634 920.265 838.322 919.014 840.005C917.523 842.012 915.349 844.23 913.012 845.229C903.985 849.089 891.874 848.98 882.13 850.204L844.847 855.115C849.163 847.971 852.349 840.706 854.175 832.536C860.034 806.311 860.24 778.057 860.878 751.274C862.804 670.488 856.835 560.604 826.402 486.302C821.41 474.114 815.267 462.681 808.255 451.549Z"/>
	<path fill="#FEFEFE" d="M324.487 159.549C339.301 142.505 356.214 124.733 374.653 111.598C407.298 88.3434 454.962 75.089 494.58 72.2827C544.315 68.7599 589.155 76.4854 633.746 99.0401C652.242 108.396 668.76 119.144 684.407 132.764C692.153 139.506 698.813 146.927 705.364 154.8C709.591 143.675 715.04 132.9 726.504 127.789C734.942 124.027 744.982 124.065 753.523 127.434Q754.055 127.646 754.583 127.869C764.528 119.727 772.973 114.303 786.476 115.629C794.715 116.438 803.412 120.382 809.723 125.691C817.111 120.878 824.91 118.807 833.683 120.654C842.939 122.602 851.355 129.368 856.421 137.205C858.808 140.898 860.578 144.968 862.272 149.015C869.927 148.651 876.225 149.257 882.222 154.692C891.522 163.121 894.09 180.986 894.386 192.868C894.631 202.72 891.664 211.279 887.357 220.008C893.482 234.926 897.512 249.693 901.489 265.301C912.481 308.443 920.36 355.811 912.411 400.203C910.38 411.543 906.411 422.188 902.168 432.844C910.16 440.818 915.282 449.749 920.068 459.861C933.055 459.584 944.222 461.874 953.88 471.051C962.251 479.004 966.656 489.145 970.59 499.8C982.297 502.072 991.923 504.795 998.913 515.202C1008.75 529.848 1014.61 555.101 1018.38 572.397C1019.55 577.797 1020.12 583.536 1021.69 588.815C1022.16 590.43 1022.69 591.282 1024 592.357L1024 600.513L1024 622.468L1024 632.949L1024 651.593L1024 738.033C1019.83 747.101 1014.54 756.592 1004.62 760.321C1003.26 760.833 1001.84 761.233 1000.43 761.59C999.04 782.883 996.446 804.792 979.32 819.805C969.97 828.002 956.791 830.443 944.737 831.169C943.654 841.87 937.698 853.846 929.269 860.643C925.439 863.731 919.634 865.213 914.909 866.298C895.241 870.815 874.742 871.998 854.743 874.361C842.357 875.824 825.739 879.469 813.564 878.029C806.357 877.178 799.585 873.387 794.17 868.697C777.164 853.028 767.503 831.192 760.273 809.609C748.405 774.52 741.752 744.354 738.89 707.216C729.134 707.969 719.381 709.659 709.702 711.094C691.14 713.845 672.568 716.837 653.884 718.64C636.194 720.347 618.409 720.843 600.73 722.585C536.622 728.901 472.687 736.604 408.435 741.466C373.221 744.131 337.865 745.41 302.614 747.551C302.745 790.652 303.431 857.262 281.112 895.435C274.97 905.939 266.19 916.382 253.931 919.493C239.774 923.086 219.427 923.566 204.531 925.018L162.655 928.877C154.282 929.626 145.645 930.82 137.24 930.616C132.752 930.508 127.927 929.718 124.06 927.337C111.553 919.635 106.47 902.441 103.156 889.015C94.2467 889.527 84.3659 890.863 75.9075 887.361C60.7133 881.068 54.4744 862.073 48.6657 848.106C41.646 848.293 35.6317 847.639 29.6279 843.572C11.3463 831.188 5.65045 795.779 2.2079 775.216C1.43986 770.628 1.04241 765.957 0.104907 761.404L0 760.912L0 702.965L0 673.535L0 618.351C2.28878 614.092 4.43154 610.104 8.01821 606.764C14.5866 600.648 22.8784 598.516 31.668 598.709C33.4596 585.785 35.4271 572.462 43.9847 562.042C53.5067 550.448 66.5059 548.505 80.603 547.029C83.2495 538.939 85.7742 530.668 89.9554 523.21C102.789 500.316 117.117 498.701 140.814 495.17C157.073 492.747 174.649 491.182 190.424 486.647C179.059 480.838 168.006 474.951 158.025 466.88Q156.101 465.327 154.24 463.7Q152.378 462.073 150.581 460.375Q148.784 458.677 147.054 456.91Q145.324 455.143 143.664 453.311Q142.004 451.479 140.417 449.583Q138.829 447.688 137.316 445.732Q135.804 443.776 134.368 441.763Q132.933 439.75 131.576 437.683Q130.22 435.615 128.945 433.497Q127.67 431.378 126.478 429.212Q125.287 427.046 124.18 424.835Q123.073 422.624 122.053 420.371Q121.034 418.119 120.102 415.829Q119.17 413.539 118.328 411.214Q117.486 408.889 116.735 406.534Q115.984 404.178 115.325 401.795C114.079 397.337 112.721 392.659 112.25 388.053L118.507 385.644C120.065 387.419 120.392 392.649 120.975 395.177Q123.092 404.066 126.435 412.57C143.26 455.499 184.983 483.202 230.289 486.137C250.202 487.426 269.586 483.714 288.347 477.26C292.706 491.326 296.523 505.644 301.784 519.403C317.138 559.559 343.162 586.927 380.878 606.794C399.396 616.549 418.143 622.913 438.219 628.527C434.755 629.167 431.268 629.717 427.913 630.816C424.243 633.809 420.259 637.386 418.604 641.961C425.132 641.813 431.734 640.859 438.267 640.474C445.848 640.027 453.514 640.09 461.109 639.912L445.626 630.332C509.924 643.253 606.088 642.015 664.451 608.573C709.96 582.497 730.037 534.794 743.177 486.575L749.596 485.847C748.804 492.925 746.518 499.908 745.029 506.879C742.914 516.788 741.477 526.787 740.21 536.834Q737.139 562.415 736.951 588.178C736.894 599.668 737.437 611.145 737.305 622.636C736.473 623.54 736.325 623.37 735.149 623.394C725.331 623.592 715.098 622.258 704.88 622.561C679.971 623.299 654.957 628.201 630.699 633.611L579.765 645.486C566.874 648.578 553.96 652.288 540.715 653.518C516.429 655.774 485.579 651.303 460.439 650.612C417.111 649.421 373.728 654.09 330.867 659.901C317.711 661.684 304.011 662.627 291.143 665.878C289.858 652.767 288.694 639.727 286.675 626.697C281.215 591.462 267.084 524.963 238.327 501.348C227.696 492.617 219.646 491.685 206.271 493.107C194.867 494.318 183.554 496.922 172.225 498.719L142.229 503.302C133.537 504.57 123.987 504.925 115.863 508.503C110.933 510.674 106.122 515.664 102.787 519.81C94.3478 530.3 90.7528 542.64 87.6738 555.51C75.333 555.433 62.46 556.229 53.1423 565.396C42.1995 576.162 40.1396 594.391 38.2687 608.891C31.3342 607.21 24.3274 606.259 17.8517 610.127C10.3971 614.58 6.48284 623.389 4.57978 631.518C1.45615 644.862 1.11117 660.225 0.995805 673.951C0.852741 683.473 0.682027 693.028 0.998591 702.547C1.25466 728.459 5.01668 755.226 10.2521 780.59C13.9245 798.382 18.444 827.827 35.0959 838.277C41.2524 842.14 48.1937 840.484 54.7801 838.983C58.0583 852.215 62.6647 868.846 73.8996 877.668C83.2518 885.012 96.2348 881.69 107.028 880.298C112.083 892.66 114.574 907.47 124.079 917.454C127.415 920.958 131.898 923.558 136.818 923.644C153.759 923.937 172.315 920.256 189.312 918.729C205.606 917.265 222.003 916.783 238.255 914.913C243.093 914.357 248.351 914.026 253.024 912.661C257.759 911.278 262.229 907.782 265.674 904.329C299.44 870.484 295.19 784.746 294.933 740.023C315.218 739.234 335.415 738.019 355.68 736.967C378.4 735.787 401.074 734.814 423.745 732.793C463.096 729.285 502.271 723.881 541.573 719.881C569.741 717.014 598.003 715.096 626.17 712.222Q653.738 709.527 681.173 705.705C690.862 704.26 700.502 702.35 710.164 700.715C715.515 699.81 741.052 694.805 744.493 695.58C745.313 695.764 745.342 696.237 745.739 696.9C748.404 730.264 752.627 757.221 762.003 789.386C766.724 805.581 772.282 821.387 779.943 836.448C786.638 849.61 796.364 864.731 811.264 869.417C815.484 870.744 819.46 870.768 823.831 870.595C838.664 870.011 854.822 866.862 869.62 864.967C883.431 863.198 897.69 862.454 911.347 859.791C915.204 859.039 919.731 858.004 923.164 856.021C932.929 850.382 937.405 832.488 940.323 822.493C952.509 822.554 965.691 821.899 975.049 813.051C990.212 798.716 991.843 773.672 992.512 754.078C994.476 753.994 996.494 753.949 998.417 753.513C1004.1 752.222 1008.86 748.45 1011.89 743.533C1022.08 726.965 1021.24 698.298 1020.86 679.209C1020.08 640.644 1016.2 602.923 1007.78 565.236C1003.98 548.239 997.898 520.353 981.985 510.71C976.487 507.378 971.504 507.459 965.486 508.947C961.583 497.592 957.452 484.557 948.119 476.417C938.696 468.199 927.185 468.164 915.448 469.069C908.99 453.55 905.903 445.08 890.977 436.284Q894.128 429.12 897.119 421.888Q898.787 417.827 900.182 413.664Q901.576 409.5 902.69 405.253Q903.803 401.007 904.632 396.695Q905.46 392.383 906 388.026C912.508 336.742 897.308 265.591 877.454 218.323C884.04 207.885 885.982 200.839 885.085 188.467C884.511 180.556 883.995 165.827 877.478 160.56C871.267 155.539 862.234 156.785 854.92 157.733C854.017 152.143 852.983 146.867 849.999 141.964C846.154 135.646 839.746 130.8 832.502 129.154C823.252 127.051 815.044 130.914 807.355 135.568C805.613 133.736 803.79 131.953 801.772 130.42C795.326 125.523 786.801 122.577 778.668 123.763C769.158 125.149 762.856 131.056 757.502 138.47C753.322 136.12 748.782 133.895 744.039 132.99C737.744 131.788 731.279 133.351 726.054 137.01C716.467 143.724 713.82 154.142 711.776 165.006L701.155 165.545C696.906 160.151 693.305 154.241 688.865 149.001C679.011 137.371 665.806 128.099 653.098 119.841C638.272 110.206 622.502 101.7 605.93 95.4709C560.81 78.5121 507.203 75.9296 460.297 85.9922C405.23 97.8055 356.81 126.448 325.844 174.282L317.01 174.513C317.044 167.386 316.716 160.813 312.836 154.541Q312.527 154.031 312.193 153.537Q311.859 153.043 311.5 152.567Q311.141 152.091 310.758 151.633Q310.375 151.176 309.97 150.739Q309.565 150.301 309.138 149.885Q308.71 149.469 308.263 149.075Q307.815 148.681 307.348 148.31Q306.881 147.94 306.396 147.593Q305.91 147.247 305.408 146.925Q304.906 146.604 304.388 146.308Q303.87 146.013 303.337 145.744Q302.805 145.475 302.26 145.234Q301.715 144.992 301.158 144.779Q300.601 144.566 300.034 144.381Q299.467 144.196 298.891 144.04Q298.316 143.884 297.733 143.758C288.536 141.75 280.554 144.722 272.862 149.518C271.053 146.508 269.089 143.785 266.467 141.433C261.396 136.888 255.035 134.649 248.23 135.113C237.218 135.862 230.111 143.021 223.145 150.743C220.386 148.038 217.439 145.619 213.883 144.033C207.693 141.273 200.529 141.49 194.279 143.971C184.036 148.039 179.34 157.005 175.393 166.588C171.443 166.894 167.737 167.273 163.983 168.597C155.548 171.571 149.405 177.899 145.681 185.914C136.762 205.111 139.593 224.297 146.569 243.514Q138.623 267.767 131.461 292.263C126.582 308.703 121.67 325.372 119.217 342.384C118.158 349.727 117.67 357.525 117.836 364.941C117.919 368.627 118.792 373.113 118.246 376.705C118.209 376.945 118.165 377.183 118.125 377.422C115.853 375.615 113.105 374.59 110.463 373.447C108.533 338.992 118.786 304.525 128.573 271.829C131.495 262.07 134.07 251.914 137.76 242.419C130.679 223.191 129.758 200.4 138.421 181.48C142.636 172.275 149.445 164.83 159.111 161.354C162.121 160.272 165.187 159.748 168.361 159.417C174.735 148.164 182.558 138.663 195.526 135.03C204.288 132.576 213.375 134.057 221.23 138.569C221.472 138.708 221.71 138.854 221.95 138.996C230.687 131.091 240.364 125.848 252.496 126.514C259.977 126.924 267.769 130.227 272.788 135.891Q273.893 137.158 274.939 138.475Q275.723 138.09 276.525 137.742Q277.327 137.395 278.145 137.086Q278.963 136.777 279.794 136.508Q280.626 136.239 281.469 136.011Q282.313 135.782 283.166 135.594Q284.02 135.406 284.881 135.259Q285.743 135.112 286.61 135.006Q287.478 134.901 288.35 134.837Q289.221 134.773 290.095 134.751Q290.969 134.729 291.842 134.749Q292.716 134.769 293.588 134.831Q294.46 134.893 295.328 134.997Q296.195 135.101 297.057 135.246Q297.919 135.391 298.773 135.577Q299.627 135.764 300.471 135.991Q301.315 136.218 302.147 136.485C311.536 139.586 317.932 146.017 322.227 154.771Q323.388 157.145 324.487 159.549ZM242.44 494.065C249.352 501.338 255.644 508.847 260.86 517.461C283.551 554.927 292.727 612.479 298.23 655.603C316.093 655.069 334.464 651.546 352.206 649.251C374.242 646.4 396.502 644.299 418.604 641.961C420.259 637.386 424.243 633.809 427.913 630.816C382.621 621.727 338.686 596.145 312.767 557.186C299.053 536.571 288.947 511.61 282.909 487.668C269.53 490.864 256.218 493.467 242.44 494.065ZM1017.12 600.265C1017.79 606.9 1018 614.057 1019.82 620.473L1024 622.468L1024 600.513L1017.12 600.265Z"/>
	<path fill="#E8B8F2" d="M1024 632.949L1024 651.593C1022.84 650.04 1022.23 648.415 1021.68 646.571C1020.68 643.24 1019.15 637.114 1021.16 634.045C1021.64 633.31 1023.17 633.173 1024 632.949Z"/>
	<path fill="#D593E7" d="M729.896 548.893C730.569 550.154 730.465 551.023 730.424 552.433C730.238 558.909 729.117 565.393 728.748 571.871C727.948 585.923 727.934 600.043 727.987 614.114C716.567 615.032 705.104 614.731 693.673 615.31C683.587 615.82 673.509 617.212 663.463 618.244L663.253 617.874C665.17 616.489 667.539 615.661 669.61 614.498C673.655 612.226 677.673 609.516 681.452 606.833C703.848 590.934 716.228 571.843 729.896 548.893Z"/>
	<path fill="#E5D9F7" d="M339.668 243.411C356.929 243.396 374.224 242.686 391.482 242.296L514.278 239.401C542.219 238.693 570.145 237.633 598.101 237.735C615.988 258.32 641.199 266.57 667.794 268.499C671.483 268.767 677.126 269.15 680.172 266.743C680.431 266.538 680.647 266.284 680.884 266.055C688.695 278.046 691.201 293.278 695.634 306.693C697.587 306.382 700.257 305.633 701.979 306.926C702.122 307.033 702.24 307.17 702.371 307.292C702.37 308.53 702.164 308.77 701.216 309.617C699.678 310.991 696.87 311.29 694.89 311.603L694.954 312.147C696.123 321.55 698.467 330.914 699.943 340.295C703.952 365.768 705.971 390.69 704.098 416.425C703.64 422.714 703.878 429.799 701.035 435.616C700.868 436.92 700.523 438.447 700.598 439.747C701.916 447.247 699.924 455.793 698.675 463.232C693.68 492.979 680.949 538.796 663.719 563.571C656.53 573.909 648.145 583.457 639.329 592.422C637.838 593.939 634.933 596.152 634.554 598.194C611.063 608.4 566.974 614.86 541.108 614.547C540.072 614.539 539.028 614.532 537.995 614.449C527.402 613.595 516.346 611.461 505.942 609.2C475.888 602.668 447.284 592.537 425.976 569.132C421.385 564.09 417.998 558.303 414.626 552.415C413.048 549.659 411.593 546.6 409.552 544.159C409.465 544.055 409.374 543.954 409.285 543.851C407.571 546.679 405.794 549.461 403.016 551.374C399.868 553.541 395.699 554.044 392.003 553.278C388.853 552.626 386.278 550.867 384.565 548.139C378.991 539.26 382.003 526.262 383.913 516.697C373.99 502.624 368.722 474.459 367.177 457.017C366.538 449.8 367.214 438.73 363.808 432.319C362.356 437.557 359.759 442.626 354.943 445.498Q354.343 445.862 353.709 446.163Q353.075 446.464 352.414 446.699Q351.753 446.934 351.071 447.1Q350.39 447.267 349.694 447.363Q348.999 447.459 348.298 447.483Q347.597 447.508 346.897 447.461Q346.197 447.415 345.505 447.297Q344.813 447.179 344.137 446.991C341.037 446.101 338.56 444.034 337.026 441.21C331.522 431.073 337.343 420.513 340.341 410.734C339.829 410.173 339.339 409.646 338.964 408.979C335.677 403.147 334.894 394.158 333.934 387.53C328.339 348.901 329.796 311.37 334.787 272.763C336.05 262.994 336.817 252.858 339.668 243.411Z"/>
	<path fill="#C95DD3" d="M428.599 247.4C429.943 247.482 430.749 247.87 431.842 248.639C431.97 249.83 431.731 250.227 430.998 251.128C428.079 254.714 423.027 257.578 419.159 260.103C396.414 274.952 374.702 278.881 348.124 280.53L345.47 280.436C344.591 279.579 344.692 279.525 344.391 278.418C346.295 274.968 355.009 275.355 358.653 275.138C363.094 274.874 367.703 274.811 372.097 274.116C393.191 270.782 412.062 260.517 428.599 247.4Z"/>
	<path fill="#C95DD3" d="M522.166 451.765C528.418 451.303 535.113 452.065 540.823 454.773Q541.637 455.168 542.43 455.603Q543.224 456.037 543.995 456.51Q544.767 456.983 545.514 457.493Q546.261 458.003 546.983 458.548Q547.704 459.094 548.398 459.675Q549.092 460.255 549.757 460.869Q550.422 461.483 551.056 462.128Q551.69 462.773 552.291 463.449Q552.893 464.125 553.461 464.829Q554.029 465.533 554.562 466.265Q555.094 466.996 555.591 467.752Q556.087 468.509 556.546 469.288Q557.005 470.068 557.425 470.869Q557.845 471.67 558.226 472.491Q558.607 473.312 558.946 474.151Q559.286 474.989 559.585 475.843C556.165 473.951 553.169 471.317 550.016 469.02C543.718 464.43 536.887 462.054 529.384 460.178L528.748 460.065C514.199 457.63 499.18 463.387 487.397 471.624C488.671 469.61 489.98 467.591 491.51 465.758C499.245 456.493 510.53 452.823 522.166 451.765Z"/>
	<path fill="#C95DD3" d="M630.237 429.556C634.057 429.728 637.617 429.916 641.172 431.521C645.082 433.287 648.506 436.541 649.922 440.655C650.982 443.732 650.808 447.014 649.233 449.884C647.369 453.28 643.576 455.763 639.955 456.888C636.817 457.171 633.915 457.375 630.822 456.525C626.746 455.406 623.03 452.883 621.055 449.067Q620.765 448.506 620.533 447.918Q620.302 447.33 620.131 446.722Q619.96 446.114 619.852 445.492Q619.744 444.869 619.7 444.239Q619.655 443.609 619.675 442.978Q619.695 442.346 619.779 441.72Q619.862 441.094 620.009 440.48Q620.156 439.865 620.365 439.269C622.107 434.229 625.757 431.846 630.237 429.556Z"/>
	<path fill="#E5D9F7" d="M630.128 432.033C633.614 431.987 637.005 432.138 640.184 433.745C644.581 435.968 646.438 439.647 647.815 444.13C646.178 449.541 644.527 451.544 639.73 454.501C637.578 454.545 635.226 454.719 633.107 454.309C629.429 453.597 625.699 451.318 623.717 448.095C622.3 445.789 621.746 443.081 622.447 440.438C623.545 436.297 626.663 434.094 630.128 432.033Z"/>
	<path fill="#C95DD3" d="M399.022 427.078C403.013 426.893 406.818 426.815 410.625 428.228C414.857 429.799 418.369 432.927 420.197 437.081C421.594 440.255 421.836 443.742 420.395 446.944C418.469 451.222 414.513 453.728 410.321 455.382C406.936 456.03 403.42 455.924 400.118 454.886C395.62 453.471 391.601 450.252 389.613 445.929C388.143 442.73 387.916 438.995 389.23 435.703C391.058 431.123 394.799 429.035 399.022 427.078Z"/>
	<path fill="#E5D9F7" d="M400.413 429.523C403.423 429.492 406.51 429.627 409.379 430.625C412.922 431.858 416.014 434.376 417.489 437.873C418.604 440.516 418.679 443.548 417.431 446.158C415.807 449.557 412.428 451.816 408.971 452.989Q407.843 453.2 406.696 453.244Q405.549 453.289 404.408 453.165Q403.267 453.041 402.156 452.752Q401.046 452.463 399.989 452.015C396.496 450.522 393.446 447.709 392.049 444.135C390.969 441.37 390.871 438.305 392.191 435.602C393.938 432.023 396.846 430.73 400.413 429.523Z"/>
	<path fill="#C95DD3" d="M340.341 410.734C343.75 404.749 350.16 392.086 356.419 389.277C357.537 389.474 357.769 389.473 358.484 390.442C363.489 397.225 365.314 423.598 363.808 432.319C362.356 437.557 359.759 442.626 354.943 445.498Q354.343 445.862 353.709 446.163Q353.075 446.464 352.414 446.699Q351.753 446.934 351.071 447.1Q350.39 447.267 349.694 447.363Q348.999 447.459 348.298 447.483Q347.597 447.508 346.897 447.461Q346.197 447.415 345.505 447.297Q344.813 447.179 344.137 446.991C341.037 446.101 338.56 444.034 337.026 441.21C331.522 431.073 337.343 420.513 340.341 410.734Z"/>
	<path fill="#E8B8F2" d="M355.461 394.382C355.582 394.489 355.715 394.584 355.825 394.703C359.7 398.886 361.282 412.819 361.492 418.432C361.787 426.26 360.584 436.585 354.855 442.439C352.16 445.193 349.692 445.803 345.962 445.838C344.961 445.242 343.937 444.632 343.012 443.921C339.998 441.605 338.55 437.656 338.229 433.984C336.95 419.367 346.411 404.938 355.461 394.382Z"/>
	<path fill="#C95DD3" d="M700.598 439.747C698.583 444.724 696.515 450.297 692.017 453.593C689.861 455.174 687.404 455.888 684.752 455.411C680.946 454.726 677.439 451.95 675.28 448.827C670.079 441.301 670.781 431.804 672.485 423.3C673.813 416.671 679.369 395.733 685.472 392.171C686.29 391.693 685.931 391.814 686.969 392.113C695.857 400.665 699.449 423.573 701.035 435.616C700.868 436.92 700.523 438.447 700.598 439.747Z"/>
	<path fill="#E5D9F7" d="M686.259 397.868C688.679 400.668 690.381 404.978 691.609 408.458C695.313 418.948 699.539 435.498 694.166 446.082C692.214 449.928 689.775 451.69 685.772 453.063C684.455 452.749 683.029 452.461 681.862 451.744C678.419 449.63 676.509 445.852 675.701 442.008C672.798 428.197 678.752 409.355 686.259 397.868Z"/>
	<path fill="#C95DD3" d="M644.087 498.825C652.116 508.341 657.688 528.686 658.428 540.881C658.79 546.824 657.918 553.539 653.686 558.053C650.78 561.151 646.944 562.383 642.8 562.614C639.71 561.899 637.063 561.133 634.614 559.026C630.608 555.58 628.799 550.662 628.344 545.501C627.001 530.267 634.405 510.434 644.087 498.825Z"/>
	<path fill="#E5D9F7" d="M643.671 505.784C647.287 509.016 649.047 515.626 650.356 520.148C653.167 529.856 657.516 544.425 652.097 553.727C649.852 557.58 647.3 558.972 643.068 559.99C641.732 559.682 640.325 559.418 639.087 558.813C636.008 557.308 633.859 554.288 632.832 551.085C628.265 536.829 637.117 518.247 643.671 505.784Z"/>
	<path fill="#C95DD3" d="M383.913 516.697C386.409 510.363 392.708 494.122 397.757 490.54C399.057 490.562 399.343 490.579 400.365 491.521C402.037 493.062 403.145 496.466 403.967 498.563C408.563 510.298 411.926 522.384 410.955 535.108Q410.648 539.58 409.285 543.851C407.571 546.679 405.794 549.461 403.016 551.374C399.868 553.541 395.699 554.044 392.003 553.278C388.853 552.626 386.278 550.867 384.565 548.139C378.991 539.26 382.003 526.262 383.913 516.697Z"/>
	<path fill="#E5D9F7" d="M397.034 495.341C400.093 497.397 401.06 501.289 402.19 504.611C406.198 516.391 411.419 532.706 405.229 544.566C402.718 549.375 399.523 551.068 394.599 552.603C393.431 552.406 392.431 551.99 391.404 551.412C388.154 549.582 386.178 546.369 385.222 542.846C381.066 527.533 389.588 508.439 397.034 495.341Z"/>
	<path fill="#C95DD3" d="M518.85 404.204C526.312 403.497 534.225 404.365 541.478 406.191C564.186 411.908 586.931 427.949 598.878 448.259C602.216 453.934 606.708 463.361 604.714 469.991C604.258 471.506 603.608 472.339 602.18 473.081C599.569 473.287 598.187 472.147 596.554 470.268C593.559 466.824 591.705 461.995 589.474 458.008C583.648 447.596 574.655 438.719 564.998 431.833C551.013 421.86 532.257 415.826 515.026 418.639C489.427 422.827 464.288 440.961 450.938 463.04C447.979 467.934 445.549 476.767 440.696 480.031C439.348 480.938 438.378 481.074 436.819 480.764C435.778 479.675 435.488 478.718 435.323 477.252C433.892 464.558 443.095 450.062 450.713 440.738C468.093 419.468 491.62 406.992 518.85 404.204Z"/>
	<path fill="#C95DD3" d="M465.491 269.853C465.528 269.871 465.569 269.883 465.602 269.907C466.746 270.747 466.761 270.815 467.06 272.172C465.162 277.623 456.552 282.413 451.932 285.671C466.519 307.964 472.805 330.575 468.871 357.211C466.332 374.404 459.027 392.052 444.611 402.618C435.656 409.182 424.88 412.881 413.72 411.034C400.186 408.793 388.859 398.572 381.189 387.73Q380.79 387.117 380.414 386.49C366.943 364.497 367.527 339.618 373.443 315.384C366.828 316.867 354.209 318.789 347.788 317.027C346.519 316.679 346.018 316.076 345.309 315.027C345.699 313.787 346.441 313.514 347.662 313.221C352.09 312.16 357.282 312.656 361.839 312.401Q373.552 311.667 385.022 309.18C406.74 304.389 428.521 295.841 447.064 283.464C453.405 279.233 459.238 274.23 465.491 269.853Z"/>
	<path fill="#FEFEFE" d="M447.912 288.149C448.584 288.522 449.134 288.919 449.655 289.49C452.659 292.776 454.749 297.158 456.634 301.141C463.874 316.437 466.96 332.353 465.687 349.251C464.358 366.894 458.189 386.439 444.26 398.227C436.719 404.609 426.697 408.533 416.735 407.648C405.722 406.668 395.613 399.683 388.711 391.354C375.646 375.586 371.956 354.363 373.699 334.459L373.79 333.556C374.231 329.215 375.184 317.365 378.533 314.628L379.188 314.864C380.847 320.528 377.736 330.718 377.343 336.87C376.624 348.118 380.593 361.873 388.181 370.38C391.973 374.63 396.989 377.92 402.822 378.15C408.192 378.361 413.132 375.862 416.855 372.112C426.585 362.31 427.521 346.886 427.52 333.895C426.366 334.744 425.206 335.632 423.988 336.388C421.109 338.173 417.513 339.194 414.153 338.325C410.72 337.438 408.169 334.798 406.482 331.78C402.238 324.185 403.118 315.56 405.478 307.595C420.697 302.135 433.876 296.307 447.912 288.149Z"/>
	<path fill="#C95DD3" d="M590.077 285.795C584.626 281.019 570.679 274.166 568.839 267.143C569.092 265.934 569.176 265.931 570.126 265.122C575.303 266.732 581.114 273.274 585.561 276.586C613.988 297.757 660.335 311.868 695.634 306.693C697.587 306.382 700.257 305.633 701.979 306.926C702.122 307.033 702.24 307.17 702.371 307.292C702.37 308.53 702.164 308.77 701.216 309.617C699.678 310.991 696.87 311.29 694.89 311.603C689.593 311.124 683.53 312.211 678.2 312.686C682.7 338.675 680.567 364.211 665.146 386.45C656.949 398.27 644.589 407.895 630.16 410.383C617.81 412.512 606.441 409.569 596.32 402.297C581.563 391.693 573.71 374.053 570.92 356.544C567.693 336.301 570.385 316.573 580.946 298.839C583.67 294.264 586.953 290.095 590.077 285.795Z"/>
	<path fill="#E5D9F7" d="M597.19 352.868C599.075 353.122 601.342 353.424 602.7 354.925C603.632 355.955 604.104 357.019 603.983 358.432C603.78 360.787 602.25 362.06 600.616 363.538C598.367 363.514 596.359 363.526 594.712 361.732C593.933 360.884 593.607 359.875 593.655 358.736C593.771 355.998 595.324 354.643 597.19 352.868Z"/>
	<path fill="#FEFEFE" d="M591.382 290.465C591.207 292.98 584.28 302.889 582.799 306.345C580.19 312.433 578.717 319.144 578.08 325.721C576.625 340.747 578.548 357.499 588.535 369.475C592.595 374.344 597.93 378.462 604.472 378.941C610.009 379.348 615.173 377.218 619.301 373.598C630.078 364.15 631.133 348.482 631.908 335.195C627.455 338.226 624.225 339.682 618.908 340.701C614.409 339.283 611.289 337.169 608.617 333.203C604.68 327.358 603.325 318.973 604.964 312.115C606.604 305.254 610.813 301.717 616.494 298.165C632.099 304.349 647.304 308.583 663.877 311.306Q668.956 312.142 674.084 312.581Q676.12 321.571 676.464 330.783C677.221 351.977 671.098 375.025 656.302 390.761C647.759 399.848 635.702 407.218 622.933 407.5C612.006 407.741 601.508 402.41 593.761 394.977C579.832 381.614 573.857 360.86 573.498 341.99C573.167 324.638 579.092 303.223 591.382 290.465Z"/>
	<defs>
		<linearGradient id="gradient_0" gradientUnits="userSpaceOnUse" x1="43.493748" y1="869.81909" x2="832.75867" y2="523.87543">
			<stop offset="0" stop-color="#D351D5"/>
			<stop offset="1" stop-color="#E77BEB"/>
		</linearGradient>
	</defs>
	<path fill="url(#gradient_0)" d="M747.044 622.978C746.168 607.095 745.5 591.295 746.095 575.377C747.225 545.128 754.788 479.524 775.171 456.297C778.329 452.698 782.453 450.111 787.343 449.927C792.248 449.741 796.378 452.284 799.784 455.591C824.54 479.625 844.673 583.606 848.988 618.09C850.616 631.098 851.319 644.367 852.254 657.445C853.665 677.191 855.091 697.286 855.031 717.07C854.947 745.251 851.595 834.368 832.851 853.031C830.147 855.724 826.587 857.566 822.697 857.476C819.185 857.395 815.814 856.403 812.949 854.376C812.415 850.927 807.4 847.575 805.267 844.826C803.674 842.771 802.326 840.39 800.986 838.161C797.238 831.927 793.535 825.415 790.559 818.774C787.205 811.29 783.157 799.143 778.674 792.901L777.66 792.998C764.513 771.431 756.101 719.755 754.943 694.504C752.496 694.856 747.433 695.075 745.739 696.9C745.342 696.237 745.313 695.764 744.493 695.58C741.052 694.805 715.515 699.81 710.164 700.715C700.502 702.35 690.862 704.26 681.173 705.705Q653.738 709.527 626.17 712.222C598.003 715.096 569.741 717.014 541.573 719.881C502.271 723.881 463.096 729.285 423.745 732.793C401.074 734.814 378.4 735.787 355.68 736.967C335.415 738.019 315.218 739.234 294.933 740.023C295.19 784.746 299.44 870.484 265.674 904.329C262.229 907.782 257.759 911.278 253.024 912.661C248.351 914.026 243.093 914.357 238.255 914.913C222.003 916.783 205.606 917.265 189.312 918.729C172.315 920.256 153.759 923.937 136.818 923.644C131.898 923.558 127.415 920.958 124.079 917.454C114.574 907.47 112.083 892.66 107.028 880.298C96.2348 881.69 83.2518 885.012 73.8996 877.668C62.6647 868.846 58.0583 852.215 54.7801 838.983C48.1937 840.484 41.2524 842.14 35.0959 838.277C18.444 827.827 13.9245 798.382 10.2521 780.59C5.01668 755.226 1.25466 728.459 0.998591 702.547C0.682027 693.028 0.852741 683.473 0.995805 673.951C1.11117 660.225 1.45615 644.862 4.57978 631.518C6.48284 623.389 10.3971 614.58 17.8517 610.127C24.3274 606.259 31.3342 607.21 38.2687 608.891C40.1396 594.391 42.1995 576.162 53.1423 565.396C62.46 556.229 75.333 555.433 87.6738 555.51C90.7528 542.64 94.3478 530.3 102.787 519.81C106.122 515.664 110.933 510.674 115.863 508.503C123.987 504.925 133.537 504.57 142.229 503.302L172.225 498.719C183.554 496.922 194.867 494.318 206.271 493.107C219.646 491.685 227.696 492.617 238.327 501.348C267.084 524.963 281.215 591.462 286.675 626.697C288.694 639.727 289.858 652.767 291.143 665.878C304.011 662.627 317.711 661.684 330.867 659.901C373.728 654.09 417.111 649.421 460.439 650.612C485.579 651.303 516.429 655.774 540.715 653.518C553.96 652.288 566.874 648.578 579.765 645.486L630.699 633.611C654.957 628.201 679.971 623.299 704.88 622.561C715.098 622.258 725.331 623.592 735.149 623.394C736.325 623.37 736.473 623.54 737.305 622.636C740.013 623.685 744.128 623.082 747.044 622.978Z"/>
	<path fill="#C95DD3" d="M764.114 622.839L762.489 623.083C760.963 621.727 760.915 620.399 760.779 618.412C759.961 606.387 765.832 572.1 773.454 563.333C775.217 561.305 777.602 559.593 780.368 559.446C782.682 559.324 784.847 560.547 786.502 562.069C791.408 566.58 794.179 573.684 796.522 579.752C807.731 608.782 811.93 642.022 812.467 672.987C812.777 690.934 811.301 727.562 798.495 740.532C796.936 742.111 794.862 743.317 792.582 743.242C789.447 743.138 786.753 740.894 784.772 738.655C782.424 736.002 780.626 732.866 779.097 729.686C775.925 723.087 767.153 699.337 767.489 692.603C767.531 691.753 767.389 691.89 767.947 691.413C768.575 690.875 769.041 690.792 769.824 690.621C773.391 704.613 777.904 719.924 784.916 732.599C786.296 735.094 788.43 738.939 791.428 739.569C792.412 739.775 793.528 739.265 794.32 738.694C800.401 734.312 803.526 724.073 804.846 717.035C812.724 675.039 809.303 628.901 795.787 588.39C793.418 581.29 791.293 573.292 786.915 567.139C785.583 565.267 783.938 563.289 781.459 563.126C779.779 563.015 778.245 563.8 776.983 564.831C765.357 574.327 765.948 607.775 764.172 622.382L764.114 622.839Z"/>
	<path fill="#FEFEFE" d="M66.0174 572.722C70.7208 567.834 78.3253 568.13 84.6823 567.894Q82.3134 593.084 81.2153 618.361Q80.1171 643.638 80.2926 668.939Q80.4681 694.239 81.9168 719.499Q83.3654 744.758 86.0835 769.913C84.7414 772.603 83.941 775.384 82.3142 777.958C81.7697 778.26 81.465 778.64 80.8192 778.44C78.0875 777.593 75.6823 771.971 74.5727 769.453C63.6665 744.697 58.6635 624.642 61.3906 593.714C62.0448 586.295 63.3662 579.687 66.0174 572.722Z"/>
	<path fill="#D593E7" d="M241.277 611.953C243.91 612.35 246.324 613.225 248.392 614.952C260.479 625.045 263.32 656.615 265.107 671.895L253.358 672.557C253.425 672.418 253.495 672.281 253.56 672.141L253.878 671.439C254.284 670.556 254.774 669.629 255.006 668.681C255.323 667.384 254.909 666.286 254.224 665.198L253.188 665.005C252.521 665.283 251.983 665.596 251.438 666.075C243.951 672.657 242.491 687.353 242.097 696.693C241.502 710.828 243.382 728.012 253.373 738.836C256.283 739.502 259.069 739.892 262.043 740.127C261.637 749.607 260.869 758.866 259.62 768.275C258.598 773.838 257.222 782.09 252.397 785.661C251.104 786.617 249.554 787.141 247.939 786.784C245.964 786.347 244.45 784.627 243.432 782.98C229.901 761.089 225.155 689.323 226.111 662.206C226.507 650.978 227.678 639.572 230.488 628.681C232.309 621.628 234.712 615.793 241.277 611.953Z"/>
	<path fill="#E8B8F2" d="M764.493 632.479C769.661 630.947 775.578 630.598 780.924 629.872C786.076 647.661 788.236 662.031 785.487 680.512C756.28 681.964 727.491 688.091 698.563 692.234Q643.958 699.728 589.05 704.526C578.05 705.536 567.094 706.771 556.078 707.67C550.375 708.136 544.577 708.885 538.855 708.521C551.965 703.974 567.379 703.991 581.137 702.321C594.552 700.693 607.909 698.238 621.288 696.306C630.979 694.907 640.771 694.169 650.407 692.39C673.881 688.055 696.386 678.211 716.99 666.384C723.803 662.474 763.25 637.084 764.493 632.479Z"/>
	<defs>
		<linearGradient id="gradient_1" gradientUnits="userSpaceOnUse" x1="252.78836" y1="725.84711" x2="388.5752" y2="679.62457">
			<stop offset="0" stop-color="#E3E4E8"/>
			<stop offset="1" stop-color="#EED0FF"/>
		</linearGradient>
	</defs>
	<path fill="url(#gradient_1)" d="M250.231 678.567Q264.871 677.799 279.482 676.594C280.802 680.161 282.19 681.089 285.467 682.916C290.329 685.628 294.234 690.124 298.903 693.304C312.399 702.497 328.505 709.743 344.271 714.029Q352.694 716.297 361.355 717.338C367.98 718.171 404.566 720.381 407.567 722.382C393.986 725.148 377.404 725.555 363.474 726.705C344.222 728.294 324.938 730.063 305.656 731.211C288.881 732.211 272.051 732.672 255.262 733.538C246.582 714.034 247.521 699.227 250.231 678.567Z"/>
	<path fill="#D593E7" d="M26.5038 620.962C30.6155 620.274 33.6598 622.292 36.955 624.4C36.9451 650.84 36.6517 677.374 37.6593 703.798C39.2073 744.395 43.3797 785.572 51.1493 825.46C47.2289 825.707 43.5897 825.904 39.77 824.722C38.9403 823.803 38.1393 822.858 37.4543 821.824C29.2599 809.454 26.4018 792.678 23.5416 778.32C16.2607 741.769 12.1455 704.933 14.0739 667.645C14.5586 658.271 15.1558 648.753 16.9864 639.531C18.3796 632.513 20.2069 625.132 26.5038 620.962Z"/>
	<path fill="#E8B8F2" d="M764.114 622.839L764.172 622.382C765.948 607.775 765.357 574.327 776.983 564.831C778.245 563.8 779.779 563.015 781.459 563.126C783.938 563.289 785.583 565.267 786.915 567.139C791.293 573.292 793.418 581.29 795.787 588.39C809.303 628.901 812.724 675.039 804.846 717.035C803.526 724.073 800.401 734.312 794.32 738.694C793.528 739.265 792.412 739.775 791.428 739.569C788.43 738.939 786.296 735.094 784.916 732.599C777.904 719.924 773.391 704.613 769.824 690.621C775.346 689.31 780.378 688.398 786.073 688.522C785.493 688.092 785.448 688.157 785.101 687.533C783.991 685.538 785.041 682.606 785.487 680.512C788.236 662.031 786.076 647.661 780.924 629.872C780.225 627.306 779.494 624.792 779.174 622.144C778.698 621.751 778.276 621.369 777.717 621.08C774.457 619.394 767.62 622.044 764.114 622.839Z"/>
	<path fill="#C95DD3" d="M779.174 622.144C788.845 631.505 790.546 650.708 790.739 663.333C790.867 671.69 790.681 681.243 786.073 688.522C785.493 688.092 785.448 688.157 785.101 687.533C783.991 685.538 785.041 682.606 785.487 680.512C788.236 662.031 786.076 647.661 780.924 629.872C780.225 627.306 779.494 624.792 779.174 622.144Z"/>
	<path fill="#D593E7" d="M66.0174 572.722C63.3662 579.687 62.0448 586.295 61.3906 593.714C58.6635 624.642 63.6665 744.697 74.5727 769.453C75.6823 771.971 78.0875 777.593 80.8192 778.44C81.465 778.64 81.7697 778.26 82.3142 777.958C83.941 775.384 84.7414 772.603 86.0835 769.913C89.7393 782.587 90.2227 796.789 92.3647 809.834C95.6008 829.543 100.377 848.792 105.828 867.986Q96.2081 869.23 86.5135 868.903C80.0862 864.648 76.1526 858.275 72.9999 851.399C50.7769 802.929 36.2051 636.24 55.1446 586.315C57.269 580.715 60.3253 575.238 66.0174 572.722Z"/>
	<path fill="#FEFEFE" d="M130.181 899.514C118.494 879.555 114.06 853.906 109.861 831.401Q107.299 818.243 105.128 805.016Q102.957 791.788 101.179 778.501Q99.4009 765.215 98.0178 751.882Q96.6346 738.549 95.6473 725.18Q94.6601 711.812 94.0696 698.42Q93.4791 685.028 93.286 671.625Q93.0928 658.222 93.2971 644.818Q93.5015 631.415 94.1031 618.024C95.3162 589.206 95.8096 552.734 112.824 528.259C114.931 525.228 116.821 523.445 120.256 521.943C129.289 517.994 140.767 517.576 150.493 515.962L189.688 509.122C186.582 514.176 184.445 519.731 182.13 525.178C169.711 524.496 155.052 526.845 145.439 535.405C123.407 555.024 117.626 604.299 116.191 632.531C113.235 690.697 118.413 749.435 126.922 806.964Q129.872 826.602 133.404 846.143C135.42 857.281 137.741 868.194 138.638 879.507C139.061 884.856 138.88 891.958 135.386 896.304Q134.982 896.808 134.51 897.247C133.179 898.487 131.907 899.03 130.181 899.514Z"/>
	<path fill="#E8B8F2" d="M130.181 899.514C131.907 899.03 133.179 898.487 134.51 897.247Q134.982 896.808 135.386 896.304C138.88 891.958 139.061 884.856 138.638 879.507C137.741 868.194 135.42 857.281 133.404 846.143Q129.872 826.602 126.922 806.964C118.413 749.435 113.235 690.697 116.191 632.531C117.626 604.299 123.407 555.024 145.439 535.405C155.052 526.845 169.711 524.496 182.13 525.178C177.372 542.437 173.409 557.089 171.414 575.011C168.392 602.168 168.257 629.485 168.866 656.766C170.119 712.881 175.409 769.021 188.112 823.775C193.051 845.066 198.573 866.845 209.368 886.039C212.846 892.222 217.15 897.745 222.054 902.864C193.504 905.133 164.651 906.528 136.234 910.088C133.848 906.708 131.673 903.396 130.181 899.514Z"/>
	<path fill="#FEFEFE" d="M279.482 676.594C296.884 675.217 314.278 672.047 331.611 669.916C366.374 665.643 402.102 662.166 437.107 660.818C471.073 659.51 505.032 666.31 538.909 663.34C558.375 661.634 577.293 656.895 596.25 652.388C620.934 646.518 645.698 640.374 670.806 636.58C688.8 633.86 706.248 633.15 724.428 633.235C737.665 633.297 751.339 634.087 764.493 632.479C763.25 637.084 723.803 662.474 716.99 666.384C696.386 678.211 673.881 688.055 650.407 692.39C640.771 694.169 630.979 694.907 621.288 696.306C607.909 698.238 594.552 700.693 581.137 702.321C567.379 703.991 551.965 703.974 538.855 708.521C517.088 711.445 495.165 713.557 473.334 715.972C451.441 718.394 429.567 721.154 407.567 722.382C404.566 720.381 367.98 718.171 361.355 717.338Q352.694 716.297 344.271 714.029C328.505 709.743 312.399 702.497 298.903 693.304C294.234 690.124 290.329 685.628 285.467 682.916C282.19 681.089 280.802 680.161 279.482 676.594Z"/>
	<path fill="#D593E7" d="M212.478 504.033C213.005 504.017 213.532 503.999 214.06 503.999C221.643 503.998 228.024 508.457 233.2 513.64C259.399 539.873 269.354 592.521 274.778 628.081C276.78 641.21 278.96 654.627 278.997 667.937L271.648 668.352C270.584 652.932 265.311 625.572 255.89 613.617C252.813 609.712 248.349 606.521 243.272 606.091C239.648 605.784 236.28 607.042 233.528 609.381C223.382 618.005 221.181 637.218 220.062 649.523C216.718 686.309 220.184 732.394 230.909 767.899C233.204 775.495 235.557 783.822 240.847 789.942C242.842 792.25 245.483 794.508 248.682 794.64C251.588 794.76 254.038 793.075 256.016 791.113C268.489 778.744 267.542 755.185 267.495 739.031C272.044 739.006 276.544 738.73 281.08 738.419C281.931 745.116 282.345 751.99 282.48 758.738C282.677 785.197 282.771 811.675 278.719 837.894C275.817 856.67 269.145 886.812 252.82 898.311C248.605 901.28 243.46 902.76 238.345 901.651C230.923 900.042 225.773 893.746 221.779 887.733C205.361 863.019 198.531 830.887 192.704 802.255Q190.375 791.286 188.38 780.252Q186.386 769.217 184.728 758.127Q183.07 747.037 181.75 735.902Q180.43 724.766 179.449 713.596Q178.468 702.426 177.828 691.231Q177.187 680.036 176.888 668.827Q176.588 657.617 176.629 646.404Q176.671 635.191 177.053 623.984C177.816 601.85 179.349 579.627 183.803 557.892C188.183 536.522 193.316 516.695 212.478 504.033Z"/>
</svg>
